<svg width="800" height="800" version="1.1" xmlns="http://www.w3.org/2000/svg" desc="Created with imagetracer.js version 1.2.6" ><path fill="rgb(229,127,50)" stroke="rgb(229,127,50)" stroke-width="1" opacity="0.7294117647058823" d="M 388.5 0 L 412 0.5 L 388.5 1 L 388.5 0 Z " /><path fill="rgb(229,127,50)" stroke="rgb(229,127,50)" stroke-width="1" opacity="0.7294117647058823" d="M 380.5 1 L 385 1.5 L 380.5 2 L 380.5 1 Z " /><path fill="rgb(229,127,50)" stroke="rgb(229,127,50)" stroke-width="1" opacity="0.7294117647058823" d="M 415.5 1 L 420 1.5 L 415.5 2 L 415.5 1 Z " /><path fill="rgb(229,127,50)" stroke="rgb(229,127,50)" stroke-width="1" opacity="0.7294117647058823" d="M 375.5 2 L 379 2.5 L 375.5 3 L 375.5 2 Z " /><path fill="rgb(229,127,50)" stroke="rgb(229,127,50)" stroke-width="1" opacity="0.7294117647058823" d="M 421.5 2 L 425 2.5 L 421.5 3 L 421.5 2 Z " /><path fill="rgb(229,127,50)" stroke="rgb(229,127,50)" stroke-width="1" opacity="0.7294117647058823" d="M 371.5 3 L 374 3.5 L 371.5 4 L 371.5 3 Z " /><path fill="rgb(229,127,50)" stroke="rgb(229,127,50)" stroke-width="1" opacity="0.7294117647058823" d="M 426.5 3 L 429 3.5 L 426.5 4 L 426.5 3 Z " /><path fill="rgb(229,127,50)" stroke="rgb(229,127,50)" stroke-width="1" opacity="0.7294117647058823" d="M 367.5 4 L 370 4.5 L 364.5 6 L 364.5 5 L 367.5 4 Z " /><path fill="rgb(229,127,50)" stroke="rgb(229,127,50)" stroke-width="1" opacity="0.7294117647058823" d="M 430.5 4 L 436 5.5 L 433.5 6 L 430.5 5 L 430.5 4 Z " /><path fill="rgb(229,127,50)" stroke="rgb(229,127,50)" stroke-width="1" opacity="0.7294117647058823" d="M 358.5 7 L 360 7.5 L 352.5 11 L 352.5 10 L 358.5 7 Z " /><path fill="rgb(229,127,50)" stroke="rgb(229,127,50)" stroke-width="1" opacity="0.7294117647058823" d="M 440.5 7 L 448 10.5 L 446.5 11 L 440.5 8 L 440.5 7 Z " /><path fill="rgb(229,127,50)" stroke="rgb(229,127,50)" stroke-width="1" opacity="0.7294117647058823" d="M 349.5 11 L 351 11.5 L 346.5 14 L 347.5 12 L 349.5 11 Z " /><path fill="rgb(229,127,50)" stroke="rgb(229,127,50)" stroke-width="1" opacity="0.7294117647058823" d="M 449.5 11 L 492 36.5 L 490.5 36 L 449.5 12 L 449.5 11 Z " /><path fill="rgb(229,127,50)" stroke="rgb(229,127,50)" stroke-width="1" opacity="0.7294117647058823" d="M 344.5 14 L 343.5 16 L 341.5 17 L 342.5 15 L 344.5 14 Z " /><path fill="rgb(229,127,50)" stroke="rgb(229,127,50)" stroke-width="1" opacity="0.7294117647058823" d="M 339.5 17 L 338.5 19 L 308.5 37 L 309.5 35 L 339.5 17 Z " /><path fill="rgb(229,127,50)" stroke="rgb(229,127,50)" stroke-width="1" opacity="0.7294117647058823" d="M 306.5 37 L 305.5 39 L 275.5 57 L 276.5 55 L 306.5 37 Z " /><path fill="rgb(229,127,50)" stroke="rgb(229,127,50)" stroke-width="1" opacity="0.7294117647058823" d="M 493.5 37 L 525 56.5 L 523.5 56 L 497.5 41 L 493.5 37 Z " /><path fill="rgb(229,127,50)" stroke="rgb(229,127,50)" stroke-width="1" opacity="0.7294117647058823" d="M 273.5 57 L 272.5 59 L 242.5 77 L 243.5 75 L 273.5 57 Z " /><path fill="rgb(229,127,50)" stroke="rgb(229,127,50)" stroke-width="1" opacity="0.7294117647058823" d="M 526.5 57 L 558 76.5 L 556.5 76 L 530.5 61 L 526.5 57 Z " /><path fill="rgb(229,127,50)" stroke="rgb(229,127,50)" stroke-width="1" opacity="0.7294117647058823" d="M 240.5 77 L 239.5 79 L 237.5 80 L 238.5 78 L 240.5 77 Z " /><path fill="rgb(229,127,50)" stroke="rgb(229,127,50)" stroke-width="1" opacity="0.7294117647058823" d="M 559.5 77 L 563 79.5 L 561.5 79 L 559.5 77 Z " /><path fill="rgb(229,127,50)" stroke="rgb(229,127,50)" stroke-width="1" opacity="0.7294117647058823" d="M 235.5 80 L 234.5 82 L 204.5 100 L 205.5 98 L 235.5 80 Z " /><path fill="rgb(229,127,50)" stroke="rgb(229,127,50)" stroke-width="1" opacity="0.7294117647058823" d="M 564.5 80 L 596 99.5 L 594.5 99 L 568.5 84 L 564.5 80 Z " /><path fill="rgb(229,127,50)" stroke="rgb(229,127,50)" stroke-width="1" opacity="0.7294117647058823" d="M 202.5 100 L 201.5 102 L 171.5 120 L 172.5 118 L 202.5 100 Z " /><path fill="rgb(229,127,50)" stroke="rgb(229,127,50)" stroke-width="1" opacity="0.7294117647058823" d="M 597.5 100 L 629 119.5 L 627.5 119 L 601.5 104 L 597.5 100 Z " /><path fill="rgb(229,127,50)" stroke="rgb(229,127,50)" stroke-width="1" opacity="0.7294117647058823" d="M 169.5 120 L 168.5 122 L 166.5 123 L 167.5 121 L 169.5 120 Z " /><path fill="rgb(229,127,50)" stroke="rgb(229,127,50)" stroke-width="1" opacity="0.7294117647058823" d="M 630.5 120 L 667 142.5 L 665.5 142 L 634.5 124 L 630.5 120 Z " /><path fill="rgb(229,127,50)" stroke="rgb(229,127,50)" stroke-width="1" opacity="0.7294117647058823" d="M 164.5 123 L 163.5 125 L 133.5 143 L 134.5 141 L 164.5 123 Z " /><path fill="rgb(229,127,50)" stroke="rgb(229,127,50)" stroke-width="1" opacity="0.7294117647058823" d="M 131.5 143 L 130.5 145 L 100.5 163 L 101.5 161 L 131.5 143 Z " /><path fill="rgb(229,127,50)" stroke="rgb(229,127,50)" stroke-width="1" opacity="0.7294117647058823" d="M 668.5 143 L 700 162.5 L 698.5 162 L 672.5 147 L 668.5 143 Z " /><path fill="rgb(229,127,50)" stroke="rgb(229,127,50)" stroke-width="1" opacity="0.7294117647058823" d="M 98.5 163 L 97.5 165 L 73.5 179 L 52 198.5 Q 39.6 212.6 32.5 232 L 32 230.5 Q 43.6 202.1 65.5 184 L 98.5 163 Z " /><path fill="rgb(229,127,50)" stroke="rgb(229,127,50)" stroke-width="1" opacity="0.7294117647058823" d="M 701.5 163 L 730.5 181 L 749 198.5 L 757 209.5 L 754 207.5 Q 746.8 194.8 735.5 186 Q 720.5 174 702.5 165 L 701.5 163 Z " /><path fill="rgb(229,127,50)" stroke="rgb(229,127,50)" stroke-width="1" opacity="0.7294117647058823" d="M 757.5 211 Q 764.8 219.2 768 231.5 L 767 231.5 L 757.5 211 Z " /><path fill="rgb(229,127,50)" stroke="rgb(229,127,50)" stroke-width="1" opacity="0.7294117647058823" d="M 31.5 233 L 32 234.5 L 30.5 238 L 30 235.5 L 31.5 233 Z " /><path fill="rgb(229,127,50)" stroke="rgb(229,127,50)" stroke-width="1" opacity="0.7294117647058823" d="M 768.5 233 L 770 237.5 L 769 237.5 L 768.5 233 Z " /><path fill="rgb(229,127,50)" stroke="rgb(229,127,50)" stroke-width="1" opacity="0.7294117647058823" d="M 28.5 242 L 29 244.5 L 28 244.5 L 28.5 242 Z " /><path fill="rgb(229,127,50)" stroke="rgb(229,127,50)" stroke-width="1" opacity="0.7294117647058823" d="M 771.5 242 L 772 244.5 L 771 244.5 L 771.5 242 Z " /><path fill="rgb(229,127,50)" stroke="rgb(229,127,50)" stroke-width="1" opacity="0.7294117647058823" d="M 27.5 246 L 28 249.5 L 27 249.5 L 27.5 246 Z " /><path fill="rgb(229,127,50)" stroke="rgb(229,127,50)" stroke-width="1" opacity="0.7294117647058823" d="M 772.5 246 L 773 249.5 L 772 249.5 L 772.5 246 Z " /><path fill="rgb(229,127,50)" stroke="rgb(229,127,50)" stroke-width="1" opacity="0.7294117647058823" d="M 26.5 251 L 27 255.5 L 26 255.5 L 26.5 251 Z " /><path fill="rgb(229,127,50)" stroke="rgb(229,127,50)" stroke-width="1" opacity="0.7294117647058823" d="M 773.5 251 L 774 255.5 L 773 255.5 L 773.5 251 Z " /><path fill="rgb(229,127,50)" stroke="rgb(229,127,50)" stroke-width="1" opacity="0.7294117647058823" d="M 25.5 257 L 26 264.5 L 25 264.5 L 25.5 257 Z " /><path fill="rgb(229,127,50)" stroke="rgb(229,127,50)" stroke-width="1" opacity="0.7294117647058823" d="M 774.5 257 L 775 264.5 L 774 264.5 L 774.5 257 Z " /><path fill="rgb(229,127,50)" stroke="rgb(229,127,50)" stroke-width="1" opacity="0.7294117647058823" d="M 25.5 535 L 26 542.5 L 25 542.5 L 25.5 535 Z " /><path fill="rgb(229,127,50)" stroke="rgb(229,127,50)" stroke-width="1" opacity="0.7294117647058823" d="M 774.5 535 L 775 542.5 L 774 542.5 L 774.5 535 Z " /><path fill="rgb(229,127,50)" stroke="rgb(229,127,50)" stroke-width="1" opacity="0.7294117647058823" d="M 26.5 545 L 27 548.5 L 26 548.5 L 26.5 545 Z " /><path fill="rgb(229,127,50)" stroke="rgb(229,127,50)" stroke-width="1" opacity="0.7294117647058823" d="M 773.5 545 L 774 548.5 L 773 548.5 L 773.5 545 Z " /><path fill="rgb(229,127,50)" stroke="rgb(229,127,50)" stroke-width="1" opacity="0.7294117647058823" d="M 27.5 550 L 28 553.5 L 27 553.5 L 27.5 550 Z " /><path fill="rgb(229,127,50)" stroke="rgb(229,127,50)" stroke-width="1" opacity="0.7294117647058823" d="M 772.5 550 L 773 553.5 L 772 553.5 L 772.5 550 Z " /><path fill="rgb(229,127,50)" stroke="rgb(229,127,50)" stroke-width="1" opacity="0.7294117647058823" d="M 28.5 555 L 29 557.5 L 28 557.5 L 28.5 555 Z " /><path fill="rgb(229,127,50)" stroke="rgb(229,127,50)" stroke-width="1" opacity="0.7294117647058823" d="M 771.5 555 L 772 557.5 L 771 557.5 L 771.5 555 Z " /><path fill="rgb(229,127,50)" stroke="rgb(229,127,50)" stroke-width="1" opacity="0.7294117647058823" d="M 30.5 562 L 32 566.5 L 31 566.5 L 30.5 562 Z " /><path fill="rgb(229,127,50)" stroke="rgb(229,127,50)" stroke-width="1" opacity="0.7294117647058823" d="M 769.5 562 L 770 564.5 L 768.5 567 L 768 565.5 L 769.5 562 Z " /><path fill="rgb(229,127,50)" stroke="rgb(229,127,50)" stroke-width="1" opacity="0.7294117647058823" d="M 32.5 568 L 34 571.5 L 33 571.5 L 32.5 568 Z " /><path fill="rgb(229,127,50)" stroke="rgb(229,127,50)" stroke-width="1" opacity="0.7294117647058823" d="M 767.5 568 L 768 569.5 L 766.5 572 L 766 570.5 L 767.5 568 Z " /><path fill="rgb(229,127,50)" stroke="rgb(229,127,50)" stroke-width="1" opacity="0.7294117647058823" d="M 34.5 573 Q 44.7 597.3 63.5 613 L 99 636.5 L 97.5 636 L 69.5 619 L 50 600.5 Q 39.1 588.6 34.5 573 Z " /><path fill="rgb(229,127,50)" stroke="rgb(229,127,50)" stroke-width="1" opacity="0.7294117647058823" d="M 765.5 573 L 766 574.5 Q 755 599 735.5 615 L 701.5 637 L 702.5 635 Q 729.2 622.2 748 601.5 Q 758.8 589.3 765.5 573 Z " /><path fill="rgb(229,127,50)" stroke="rgb(229,127,50)" stroke-width="1" opacity="0.7294117647058823" d="M 100.5 637 L 132 656.5 L 130.5 656 L 104.5 641 L 100.5 637 Z " /><path fill="rgb(229,127,50)" stroke="rgb(229,127,50)" stroke-width="1" opacity="0.7294117647058823" d="M 699.5 637 L 698.5 639 L 668.5 657 L 669.5 655 L 699.5 637 Z " /><path fill="rgb(229,127,50)" stroke="rgb(229,127,50)" stroke-width="1" opacity="0.7294117647058823" d="M 133.5 657 L 165 676.5 L 163.5 676 L 137.5 661 L 133.5 657 Z " /><path fill="rgb(229,127,50)" stroke="rgb(229,127,50)" stroke-width="1" opacity="0.7294117647058823" d="M 666.5 657 L 665.5 659 L 630.5 680 L 631.5 678 L 666.5 657 Z " /><path fill="rgb(229,127,50)" stroke="rgb(229,127,50)" stroke-width="1" opacity="0.7294117647058823" d="M 166.5 677 L 170 679.5 L 168.5 679 L 166.5 677 Z " /><path fill="rgb(229,127,50)" stroke="rgb(229,127,50)" stroke-width="1" opacity="0.7294117647058823" d="M 171.5 680 L 203 699.5 L 201.5 699 L 175.5 684 L 171.5 680 Z " /><path fill="rgb(229,127,50)" stroke="rgb(229,127,50)" stroke-width="1" opacity="0.7294117647058823" d="M 628.5 680 L 627.5 682 L 597.5 700 L 598.5 698 L 628.5 680 Z " /><path fill="rgb(229,127,50)" stroke="rgb(229,127,50)" stroke-width="1" opacity="0.7294117647058823" d="M 204.5 700 L 236 719.5 L 234.5 719 L 208.5 704 L 204.5 700 Z " /><path fill="rgb(229,127,50)" stroke="rgb(229,127,50)" stroke-width="1" opacity="0.7294117647058823" d="M 595.5 700 L 594.5 702 L 564.5 720 L 565.5 718 L 595.5 700 Z " /><path fill="rgb(229,127,50)" stroke="rgb(229,127,50)" stroke-width="1" opacity="0.7294117647058823" d="M 237.5 720 L 241 722.5 L 239.5 722 L 237.5 720 Z " /><path fill="rgb(229,127,50)" stroke="rgb(229,127,50)" stroke-width="1" opacity="0.7294117647058823" d="M 562.5 720 L 561.5 722 L 559.5 723 L 560.5 721 L 562.5 720 Z " /><path fill="rgb(229,127,50)" stroke="rgb(229,127,50)" stroke-width="1" opacity="0.7294117647058823" d="M 242.5 723 L 274 742.5 L 272.5 742 L 246.5 727 L 242.5 723 Z " /><path fill="rgb(229,127,50)" stroke="rgb(229,127,50)" stroke-width="1" opacity="0.7294117647058823" d="M 557.5 723 L 556.5 725 L 526.5 743 L 527.5 741 L 557.5 723 Z " /><path fill="rgb(229,127,50)" stroke="rgb(229,127,50)" stroke-width="1" opacity="0.7294117647058823" d="M 275.5 743 L 307 762.5 L 305.5 762 L 279.5 747 L 275.5 743 Z " /><path fill="rgb(229,127,50)" stroke="rgb(229,127,50)" stroke-width="1" opacity="0.7294117647058823" d="M 524.5 743 L 523.5 745 L 493.5 763 L 494.5 761 L 524.5 743 Z " /><path fill="rgb(229,127,50)" stroke="rgb(229,127,50)" stroke-width="1" opacity="0.7294117647058823" d="M 308.5 763 L 340 782.5 L 338.5 782 L 312.5 767 L 308.5 763 Z " /><path fill="rgb(229,127,50)" stroke="rgb(229,127,50)" stroke-width="1" opacity="0.7294117647058823" d="M 491.5 763 L 490.5 765 L 457.5 785 L 442.5 792 L 442.5 791 L 457.5 784 L 491.5 763 Z " /><path fill="rgb(229,127,50)" stroke="rgb(229,127,50)" stroke-width="1" opacity="0.7294117647058823" d="M 341.5 783 L 358 791.5 L 356.5 792 L 342.5 785 L 341.5 783 Z " /><path fill="rgb(229,127,50)" stroke="rgb(229,127,50)" stroke-width="1" opacity="0.7294117647058823" d="M 359.5 792 L 370 795.5 L 367.5 796 L 359.5 793 L 359.5 792 Z " /><path fill="rgb(229,127,50)" stroke="rgb(229,127,50)" stroke-width="1" opacity="0.7294117647058823" d="M 439.5 792 L 441 792.5 L 430.5 796 L 430.5 795 L 439.5 792 Z " /><path fill="rgb(229,127,50)" stroke="rgb(229,127,50)" stroke-width="1" opacity="0.7294117647058823" d="M 371.5 796 L 374 796.5 L 371.5 797 L 371.5 796 Z " /><path fill="rgb(229,127,50)" stroke="rgb(229,127,50)" stroke-width="1" opacity="0.7294117647058823" d="M 426.5 796 L 429 796.5 L 426.5 797 L 426.5 796 Z " /><path fill="rgb(229,127,50)" stroke="rgb(229,127,50)" stroke-width="1" opacity="0.7294117647058823" d="M 375.5 797 L 379 797.5 L 375.5 798 L 375.5 797 Z " /><path fill="rgb(229,127,50)" stroke="rgb(229,127,50)" stroke-width="1" opacity="0.7294117647058823" d="M 421.5 797 L 425 797.5 L 421.5 798 L 421.5 797 Z " /><path fill="rgb(229,127,50)" stroke="rgb(229,127,50)" stroke-width="1" opacity="0.7294117647058823" d="M 380.5 798 L 385 798.5 L 380.5 799 L 380.5 798 Z " /><path fill="rgb(229,127,50)" stroke="rgb(229,127,50)" stroke-width="1" opacity="0.7294117647058823" d="M 415.5 798 L 420 798.5 L 415.5 799 L 415.5 798 Z " /><path fill="rgb(229,127,50)" stroke="rgb(229,127,50)" stroke-width="1" opacity="0.7294117647058823" d="M 387.5 799 L 413 799.5 L 387.5 800 L 387.5 799 Z " /><path fill="rgb(255,140,54)" stroke="rgb(255,140,54)" stroke-width="1" opacity="0.996078431372549" d="M 345.5 14 L 344.5 16 L 345.5 14 Z " /><path fill="rgb(255,140,54)" stroke="rgb(255,140,54)" stroke-width="1" opacity="0.996078431372549" d="M 340.5 17 L 339.5 19 L 340.5 17 Z " /><path fill="rgb(255,140,54)" stroke="rgb(255,140,54)" stroke-width="1" opacity="0.996078431372549" d="M 312.5 34 L 311.5 36 L 312.5 34 Z " /><path fill="rgb(255,140,54)" stroke="rgb(255,140,54)" stroke-width="1" opacity="0.996078431372549" d="M 487.5 34 L 488.5 36 L 487.5 34 Z " /><path fill="rgb(255,140,54)" stroke="rgb(255,140,54)" stroke-width="1" opacity="0.996078431372549" d="M 307.5 37 L 306.5 39 L 307.5 37 Z " /><path fill="rgb(255,140,54)" stroke="rgb(255,140,54)" stroke-width="1" opacity="0.996078431372549" d="M 492.5 37 L 493.5 39 L 492.5 37 Z " /><path fill="rgb(255,140,54)" stroke="rgb(255,140,54)" stroke-width="1" opacity="0.996078431372549" d="M 279.5 54 L 278.5 56 L 279.5 54 Z " /><path fill="rgb(255,140,54)" stroke="rgb(255,140,54)" stroke-width="1" opacity="0.996078431372549" d="M 520.5 54 L 521.5 56 L 520.5 54 Z " /><path fill="rgb(255,140,54)" stroke="rgb(255,140,54)" stroke-width="1" opacity="0.996078431372549" d="M 274.5 57 L 273.5 59 L 274.5 57 Z " /><path fill="rgb(255,140,54)" stroke="rgb(255,140,54)" stroke-width="1" opacity="0.996078431372549" d="M 525.5 57 L 526.5 59 L 525.5 57 Z " /><path fill="rgb(255,140,54)" stroke="rgb(255,140,54)" stroke-width="1" opacity="0.996078431372549" d="M 246.5 74 L 245.5 76 L 246.5 74 Z " /><path fill="rgb(255,140,54)" stroke="rgb(255,140,54)" stroke-width="1" opacity="0.996078431372549" d="M 553.5 74 L 554.5 76 L 553.5 74 Z " /><path fill="rgb(255,140,54)" stroke="rgb(255,140,54)" stroke-width="1" opacity="0.996078431372549" d="M 241.5 77 L 240.5 79 L 241.5 77 Z " /><path fill="rgb(255,140,54)" stroke="rgb(255,140,54)" stroke-width="1" opacity="0.996078431372549" d="M 558.5 77 L 559.5 79 L 558.5 77 Z " /><path fill="rgb(255,140,54)" stroke="rgb(255,140,54)" stroke-width="1" opacity="0.996078431372549" d="M 236.5 80 L 235.5 82 L 236.5 80 Z " /><path fill="rgb(255,140,54)" stroke="rgb(255,140,54)" stroke-width="1" opacity="0.996078431372549" d="M 563.5 80 L 564.5 82 L 563.5 80 Z " /><path fill="rgb(255,140,54)" stroke="rgb(255,140,54)" stroke-width="1" opacity="0.996078431372549" d="M 208.5 97 L 207.5 99 L 208.5 97 Z " /><path fill="rgb(255,140,54)" stroke="rgb(255,140,54)" stroke-width="1" opacity="0.996078431372549" d="M 591.5 97 L 592.5 99 L 591.5 97 Z " /><path fill="rgb(255,140,54)" stroke="rgb(255,140,54)" stroke-width="1" opacity="0.996078431372549" d="M 203.5 100 L 202.5 102 L 203.5 100 Z " /><path fill="rgb(255,140,54)" stroke="rgb(255,140,54)" stroke-width="1" opacity="0.996078431372549" d="M 596.5 100 L 597.5 102 L 596.5 100 Z " /><path fill="rgb(255,140,54)" stroke="rgb(255,140,54)" stroke-width="1" opacity="0.996078431372549" d="M 175.5 117 L 174.5 119 L 175.5 117 Z " /><path fill="rgb(255,140,54)" stroke="rgb(255,140,54)" stroke-width="1" opacity="0.996078431372549" d="M 624.5 117 L 625.5 119 L 624.5 117 Z " /><path fill="rgb(255,140,54)" stroke="rgb(255,140,54)" stroke-width="1" opacity="0.996078431372549" d="M 170.5 120 L 169.5 122 L 170.5 120 Z " /><path fill="rgb(255,140,54)" stroke="rgb(255,140,54)" stroke-width="1" opacity="0.996078431372549" d="M 629.5 120 L 630.5 122 L 629.5 120 Z " /><path fill="rgb(255,140,54)" stroke="rgb(255,140,54)" stroke-width="1" opacity="0.996078431372549" d="M 165.5 123 L 164.5 125 L 165.5 123 Z " /><path fill="rgb(255,140,54)" stroke="rgb(255,140,54)" stroke-width="1" opacity="0.996078431372549" d="M 657.5 137 L 658.5 139 L 657.5 137 Z " /><path fill="rgb(255,140,54)" stroke="rgb(255,140,54)" stroke-width="1" opacity="0.996078431372549" d="M 137.5 140 L 136.5 142 L 137.5 140 Z " /><path fill="rgb(255,140,54)" stroke="rgb(255,140,54)" stroke-width="1" opacity="0.996078431372549" d="M 662.5 140 L 663.5 142 L 662.5 140 Z " /><path fill="rgb(255,140,54)" stroke="rgb(255,140,54)" stroke-width="1" opacity="0.996078431372549" d="M 132.5 143 L 131.5 145 L 132.5 143 Z " /><path fill="rgb(255,140,54)" stroke="rgb(255,140,54)" stroke-width="1" opacity="0.996078431372549" d="M 667.5 143 L 668.5 145 L 667.5 143 Z " /><path fill="rgb(255,140,54)" stroke="rgb(255,140,54)" stroke-width="1" opacity="0.996078431372549" d="M 104.5 160 L 103.5 162 L 104.5 160 Z " /><path fill="rgb(255,140,54)" stroke="rgb(255,140,54)" stroke-width="1" opacity="0.996078431372549" d="M 695.5 160 L 696.5 162 L 695.5 160 Z " /><path fill="rgb(255,140,54)" stroke="rgb(255,140,54)" stroke-width="1" opacity="0.996078431372549" d="M 99.5 163 L 98.5 165 L 99.5 163 Z " /><path fill="rgb(255,140,54)" stroke="rgb(255,140,54)" stroke-width="1" opacity="0.996078431372549" d="M 700.5 163 L 701.5 165 L 700.5 163 Z " /><path fill="rgb(255,140,54)" stroke="rgb(255,140,54)" stroke-width="1" opacity="0.996078431372549" d="M 73.5 179 L 72.5 181 L 73.5 179 Z " /><path fill="rgb(255,140,54)" stroke="rgb(255,140,54)" stroke-width="1" opacity="0.996078431372549" d="M 69.5 182 L 68.5 184 L 69.5 182 Z " /><path fill="rgb(255,140,54)" stroke="rgb(255,140,54)" stroke-width="1" opacity="0.996078431372549" d="M 730.5 182 L 731.5 184 L 730.5 182 Z " /><path fill="rgb(255,140,54)" stroke="rgb(255,140,54)" stroke-width="1" opacity="0.996078431372549" d="M 64.5 186 L 58.5 193 L 64.5 186 Z " /><path fill="rgb(255,140,54)" stroke="rgb(255,140,54)" stroke-width="1" opacity="0.996078431372549" d="M 735.5 186 L 741.5 193 L 735.5 186 Z " /><path fill="rgb(255,140,54)" stroke="rgb(255,140,54)" stroke-width="1" opacity="0.996078431372549" d="M 56.5 194 L 52.5 199 L 56.5 194 Z " /><path fill="rgb(255,140,54)" stroke="rgb(255,140,54)" stroke-width="1" opacity="0.996078431372549" d="M 743.5 194 L 747.5 199 L 743.5 194 Z " /><path fill="rgb(255,140,54)" stroke="rgb(255,140,54)" stroke-width="1" opacity="0.996078431372549" d="M 749.5 201 L 751.5 204 L 749.5 201 Z " /><path fill="rgb(255,140,54)" stroke="rgb(255,140,54)" stroke-width="1" opacity="0.996078431372549" d="M 49.5 202 L 48.5 204 L 49.5 202 Z " /><path fill="rgb(255,140,54)" stroke="rgb(255,140,54)" stroke-width="1" opacity="0.996078431372549" d="M 44.5 209 L 43.5 211 L 44.5 209 Z " /><path fill="rgb(255,140,54)" stroke="rgb(255,140,54)" stroke-width="1" opacity="0.996078431372549" d="M 755.5 209 L 756.5 211 L 755.5 209 Z " /><path fill="rgb(255,140,54)" stroke="rgb(255,140,54)" stroke-width="1" opacity="0.996078431372549" d="M 25.5 265 L 26 270.5 L 25 270.5 L 25.5 265 Z " /><path fill="rgb(255,140,54)" stroke="rgb(255,140,54)" stroke-width="1" opacity="0.996078431372549" d="M 774.5 265 L 775 270.5 L 774 270.5 L 774.5 265 Z " /><path fill="rgb(255,140,54)" stroke="rgb(255,140,54)" stroke-width="1" opacity="0.996078431372549" d="M 25.5 529 L 26 534.5 L 25 534.5 L 25.5 529 Z " /><path fill="rgb(255,140,54)" stroke="rgb(255,140,54)" stroke-width="1" opacity="0.996078431372549" d="M 774.5 529 L 775 534.5 L 774 534.5 L 774.5 529 Z " /><path fill="rgb(255,140,54)" stroke="rgb(255,140,54)" stroke-width="1" opacity="0.996078431372549" d="M 43.5 589 L 44.5 591 L 43.5 589 Z " /><path fill="rgb(255,140,54)" stroke="rgb(255,140,54)" stroke-width="1" opacity="0.996078431372549" d="M 756.5 589 L 755.5 591 L 756.5 589 Z " /><path fill="rgb(255,140,54)" stroke="rgb(255,140,54)" stroke-width="1" opacity="0.996078431372549" d="M 45.5 592 L 46.5 594 L 45.5 592 Z " /><path fill="rgb(255,140,54)" stroke="rgb(255,140,54)" stroke-width="1" opacity="0.996078431372549" d="M 754.5 592 L 753.5 594 L 754.5 592 Z " /><path fill="rgb(255,140,54)" stroke="rgb(255,140,54)" stroke-width="1" opacity="0.996078431372549" d="M 48.5 596 L 49.5 598 L 48.5 596 Z " /><path fill="rgb(255,140,54)" stroke="rgb(255,140,54)" stroke-width="1" opacity="0.996078431372549" d="M 751.5 596 L 750.5 598 L 751.5 596 Z " /><path fill="rgb(255,140,54)" stroke="rgb(255,140,54)" stroke-width="1" opacity="0.996078431372549" d="M 52.5 601 L 56.5 606 L 52.5 601 Z " /><path fill="rgb(255,140,54)" stroke="rgb(255,140,54)" stroke-width="1" opacity="0.996078431372549" d="M 747.5 601 L 743.5 606 L 747.5 601 Z " /><path fill="rgb(255,140,54)" stroke="rgb(255,140,54)" stroke-width="1" opacity="0.996078431372549" d="M 58.5 607 L 63.5 613 L 58.5 607 Z " /><path fill="rgb(255,140,54)" stroke="rgb(255,140,54)" stroke-width="1" opacity="0.996078431372549" d="M 741.5 607 L 736.5 613 L 741.5 607 Z " /><path fill="rgb(255,140,54)" stroke="rgb(255,140,54)" stroke-width="1" opacity="0.996078431372549" d="M 67.5 615 L 68.5 617 L 67.5 615 Z " /><path fill="rgb(255,140,54)" stroke="rgb(255,140,54)" stroke-width="1" opacity="0.996078431372549" d="M 732.5 615 L 731.5 617 L 732.5 615 Z " /><path fill="rgb(255,140,54)" stroke="rgb(255,140,54)" stroke-width="1" opacity="0.996078431372549" d="M 71.5 618 L 72.5 620 L 71.5 618 Z " /><path fill="rgb(255,140,54)" stroke="rgb(255,140,54)" stroke-width="1" opacity="0.996078431372549" d="M 728.5 618 L 727.5 620 L 728.5 618 Z " /><path fill="rgb(255,140,54)" stroke="rgb(255,140,54)" stroke-width="1" opacity="0.996078431372549" d="M 98.5 635 L 99.5 637 L 98.5 635 Z " /><path fill="rgb(255,140,54)" stroke="rgb(255,140,54)" stroke-width="1" opacity="0.996078431372549" d="M 701.5 635 L 700.5 637 L 701.5 635 Z " /><path fill="rgb(255,140,54)" stroke="rgb(255,140,54)" stroke-width="1" opacity="0.996078431372549" d="M 103.5 638 L 104.5 640 L 103.5 638 Z " /><path fill="rgb(255,140,54)" stroke="rgb(255,140,54)" stroke-width="1" opacity="0.996078431372549" d="M 696.5 638 L 695.5 640 L 696.5 638 Z " /><path fill="rgb(255,140,54)" stroke="rgb(255,140,54)" stroke-width="1" opacity="0.996078431372549" d="M 131.5 655 L 132.5 657 L 131.5 655 Z " /><path fill="rgb(255,140,54)" stroke="rgb(255,140,54)" stroke-width="1" opacity="0.996078431372549" d="M 668.5 655 L 667.5 657 L 668.5 655 Z " /><path fill="rgb(255,140,54)" stroke="rgb(255,140,54)" stroke-width="1" opacity="0.996078431372549" d="M 136.5 658 L 137.5 660 L 136.5 658 Z " /><path fill="rgb(255,140,54)" stroke="rgb(255,140,54)" stroke-width="1" opacity="0.996078431372549" d="M 663.5 658 L 662.5 660 L 663.5 658 Z " /><path fill="rgb(255,140,54)" stroke="rgb(255,140,54)" stroke-width="1" opacity="0.996078431372549" d="M 164.5 675 L 165.5 677 L 164.5 675 Z " /><path fill="rgb(255,140,54)" stroke="rgb(255,140,54)" stroke-width="1" opacity="0.996078431372549" d="M 169.5 678 L 170.5 680 L 169.5 678 Z " /><path fill="rgb(255,140,54)" stroke="rgb(255,140,54)" stroke-width="1" opacity="0.996078431372549" d="M 630.5 678 L 629.5 680 L 630.5 678 Z " /><path fill="rgb(255,140,54)" stroke="rgb(255,140,54)" stroke-width="1" opacity="0.996078431372549" d="M 174.5 681 L 175.5 683 L 174.5 681 Z " /><path fill="rgb(255,140,54)" stroke="rgb(255,140,54)" stroke-width="1" opacity="0.996078431372549" d="M 625.5 681 L 624.5 683 L 625.5 681 Z " /><path fill="rgb(255,140,54)" stroke="rgb(255,140,54)" stroke-width="1" opacity="0.996078431372549" d="M 202.5 698 L 203.5 700 L 202.5 698 Z " /><path fill="rgb(255,140,54)" stroke="rgb(255,140,54)" stroke-width="1" opacity="0.996078431372549" d="M 597.5 698 L 596.5 700 L 597.5 698 Z " /><path fill="rgb(255,140,54)" stroke="rgb(255,140,54)" stroke-width="1" opacity="0.996078431372549" d="M 207.5 701 L 208.5 703 L 207.5 701 Z " /><path fill="rgb(255,140,54)" stroke="rgb(255,140,54)" stroke-width="1" opacity="0.996078431372549" d="M 592.5 701 L 591.5 703 L 592.5 701 Z " /><path fill="rgb(255,140,54)" stroke="rgb(255,140,54)" stroke-width="1" opacity="0.996078431372549" d="M 235.5 718 L 236.5 720 L 235.5 718 Z " /><path fill="rgb(255,140,54)" stroke="rgb(255,140,54)" stroke-width="1" opacity="0.996078431372549" d="M 564.5 718 L 563.5 720 L 564.5 718 Z " /><path fill="rgb(255,140,54)" stroke="rgb(255,140,54)" stroke-width="1" opacity="0.996078431372549" d="M 240.5 721 L 241.5 723 L 240.5 721 Z " /><path fill="rgb(255,140,54)" stroke="rgb(255,140,54)" stroke-width="1" opacity="0.996078431372549" d="M 559.5 721 L 558.5 723 L 559.5 721 Z " /><path fill="rgb(255,140,54)" stroke="rgb(255,140,54)" stroke-width="1" opacity="0.996078431372549" d="M 245.5 724 L 246.5 726 L 245.5 724 Z " /><path fill="rgb(255,140,54)" stroke="rgb(255,140,54)" stroke-width="1" opacity="0.996078431372549" d="M 554.5 724 L 553.5 726 L 554.5 724 Z " /><path fill="rgb(255,140,54)" stroke="rgb(255,140,54)" stroke-width="1" opacity="0.996078431372549" d="M 273.5 741 L 274.5 743 L 273.5 741 Z " /><path fill="rgb(255,140,54)" stroke="rgb(255,140,54)" stroke-width="1" opacity="0.996078431372549" d="M 526.5 741 L 525.5 743 L 526.5 741 Z " /><path fill="rgb(255,140,54)" stroke="rgb(255,140,54)" stroke-width="1" opacity="0.996078431372549" d="M 278.5 744 L 279.5 746 L 278.5 744 Z " /><path fill="rgb(255,140,54)" stroke="rgb(255,140,54)" stroke-width="1" opacity="0.996078431372549" d="M 521.5 744 L 520.5 746 L 521.5 744 Z " /><path fill="rgb(255,140,54)" stroke="rgb(255,140,54)" stroke-width="1" opacity="0.996078431372549" d="M 306.5 761 L 307.5 763 L 306.5 761 Z " /><path fill="rgb(255,140,54)" stroke="rgb(255,140,54)" stroke-width="1" opacity="0.996078431372549" d="M 493.5 761 L 492.5 763 L 493.5 761 Z " /><path fill="rgb(255,140,54)" stroke="rgb(255,140,54)" stroke-width="1" opacity="0.996078431372549" d="M 311.5 764 L 312.5 766 L 311.5 764 Z " /><path fill="rgb(255,140,54)" stroke="rgb(255,140,54)" stroke-width="1" opacity="0.996078431372549" d="M 488.5 764 L 487.5 766 L 488.5 764 Z " /><path fill="rgb(255,140,54)" stroke="rgb(255,140,54)" stroke-width="1" opacity="0.996078431372549" d="M 339.5 781 L 340.5 783 L 339.5 781 Z " /><path fill="rgb(0,0,0)" stroke="rgb(0,0,0)" stroke-width="1" opacity="0" d="M 0 0 L 388 0.5 L 367.5 4 L 347.5 12 L 73.5 178 L 51 198.5 Q 40.1 211.1 33 227.5 L 28 242.5 L 25 257.5 L 25 542.5 Q 33.3 590.3 64.5 615 L 81.5 627 L 342.5 785 L 367.5 796 L 387 799.5 L 0 800 L 0 0 Z " /><path fill="rgb(0,0,0)" stroke="rgb(0,0,0)" stroke-width="1" opacity="0" d="M 412.5 0 L 800 0 L 800 800 L 413 799.5 L 432.5 796 L 457.5 785 L 718.5 627 Q 736.8 616.3 750 600.5 Q 759.5 589 766 574.5 L 772 557.5 L 775 542.5 L 775 257.5 Q 766.8 209.8 735.5 185 L 718.5 173 L 452.5 12 L 432.5 4 L 419.5 1 L 412.5 1 L 412.5 0 Z " /><path fill="rgb(255,140,54)" stroke="rgb(255,140,54)" stroke-width="1" opacity="1" d="M 387.5 1 L 412.5 1 Q 414 3.5 419.5 2 L 438.5 7 L 453.5 14 L 719.5 175 L 743 193 L 759 214.5 L 766 228.5 L 772 246.5 L 774 257.5 L 774 270.5 L 775 271.5 L 775 528.5 L 774 529.5 L 774 542.5 L 772 553.5 L 766 571.5 L 759 585.5 L 743 607 L 719.5 625 L 451.5 787 Q 437.4 794.4 419.5 798 Q 414.7 796.7 413.5 799 L 386.5 799 L 359.5 792 L 341.5 783 L 80.5 625 L 57 607 L 41 585.5 L 33 569.5 L 26 542.5 L 26 529.5 L 25 528.5 L 25 271.5 L 26 270.5 L 27 251.5 L 33 230.5 L 41 214.5 L 57 193 L 80.5 175 L 346.5 14 L 361.5 7 L 387.5 1 Z M 578 158 L 568 160 L 555 165 L 543 173 L 147 578 L 140 592 L 140 602 L 144 612 L 148 617 L 159 623 L 182 628 L 204 630 L 205 631 L 216 631 L 217 632 L 235 632 L 236 633 L 273 632 L 274 631 L 282 631 L 283 630 L 304 628 L 350 617 L 386 604 Q 426 587 461 564 Q 497 540 529 511 Q 555 487 578 460 L 588 444 Q 586 437 589 436 L 587 426 L 583 419 L 546 382 L 552 374 L 646 274 L 655 259 L 660 239 L 660 223 L 658 212 Q 653 196 644 185 Q 632 170 614 162 L 598 158 L 578 158 Z " /><path fill="rgb(255,140,54)" stroke="rgb(255,140,54)" stroke-width="1" opacity="1" d="M 583.5 214 Q 597.7 212.8 602 221.5 Q 605.1 225.9 604 234.5 L 602 239.5 L 506.5 341 L 481 316.5 L 578.5 216 L 583.5 214 Z " /><path fill="rgb(255,140,54)" stroke="rgb(255,140,54)" stroke-width="1" opacity="1" d="M 441.5 356 L 523 437.5 L 492.5 468 L 458.5 497 L 433.5 515 Q 402.1 536.1 365.5 552 Q 333.7 565.7 295.5 573 L 275.5 575 L 274.5 576 L 263.5 576 L 262.5 577 L 227 577 L 227 575.5 L 441.5 356 Z " /><path fill="rgb(33,33,33)" stroke="rgb(33,33,33)" stroke-width="1" opacity="1" d="M 577.5 158 L 597.5 158 L 613.5 162 Q 632.3 169.7 644 184.5 Q 653.5 195.5 658 211.5 L 660 222.5 L 660 238.5 L 655 258.5 L 646 273.5 L 552 373.5 L 546 381.5 L 583 418.5 L 587 425.5 L 589 435.5 Q 586.3 437.3 588 443.5 L 578 459.5 Q 555.1 487.1 528.5 511 Q 497 540 460.5 564 Q 426 587 385.5 604 L 349.5 617 L 303.5 628 L 282.5 630 L 281.5 631 L 273.5 631 L 272.5 632 L 235.5 633 L 234.5 632 L 216.5 632 L 215.5 631 L 204.5 631 L 203.5 630 L 181.5 628 L 158.5 623 L 148 617 L 144 611.5 L 140 601.5 L 140 591.5 L 147 577.5 L 542.5 173 L 554.5 165 L 567.5 160 L 577.5 158 Z M 584 214 L 579 216 L 481 317 L 507 341 L 602 240 L 604 235 Q 605 226 602 222 Q 598 213 584 214 Z M 442 356 L 227 576 L 227 577 L 263 577 L 264 576 L 275 576 L 276 575 L 296 573 Q 334 566 366 552 Q 402 536 434 515 L 459 497 L 493 468 L 523 438 L 442 356 Z " /></svg>