<svg width="800" height="800" version="1.1" xmlns="http://www.w3.org/2000/svg" desc="Created with imagetracer.js version 1.2.6" ><path fill="rgb(0,0,0)" stroke="rgb(0,0,0)" stroke-width="1" opacity="0" d="M 0 0 L 800 0 L 800 800 L 0 800 L 0 0 Z M 658 62 L 657 63 L 643 64 L 626 69 L 600 84 L 45 652 Q 39 659 37 671 L 38 685 L 45 699 Q 54 710 71 713 L 117 721 L 147 723 L 148 724 L 165 724 L 166 725 L 191 725 L 192 724 L 224 723 L 225 722 L 243 721 L 244 720 L 274 716 L 317 706 L 378 685 Q 435 661 485 628 Q 538 593 584 550 Q 620 517 651 479 Q 660 469 663 454 L 662 441 L 654 426 L 602 374 L 743 223 L 756 200 L 761 183 L 762 168 L 763 167 L 761 143 L 756 126 Q 750 110 740 99 Q 724 79 700 69 L 677 63 L 658 62 Z " /><path fill="rgb(0,0,0)" stroke="rgb(0,0,0)" stroke-width="1" opacity="0" d="M 657.5 138 Q 676.7 136.8 683 148.5 L 687 157.5 L 687 167.5 Q 685.2 175.7 680 180.5 L 548.5 320 L 511 282.5 L 524 269.5 L 649.5 141 L 657.5 138 Z " /><path fill="rgb(0,0,0)" stroke="rgb(0,0,0)" stroke-width="1" opacity="0" d="M 457.5 337 L 574 452.5 L 542.5 485 Q 504.5 522 460.5 553 Q 431.5 573.5 399.5 591 L 346.5 616 L 297.5 633 L 248.5 644 L 228.5 646 L 227.5 647 L 218.5 647 L 217.5 648 L 205.5 648 L 204.5 649 L 154.5 649 L 157 645.5 L 457.5 337 Z " /><path fill="rgb(0,0,0)" stroke="rgb(0,0,0)" stroke-width="1" opacity="0.8666666666666667" d="M 605.5 80 L 604.5 82 L 605.5 80 Z " /><path fill="rgb(0,0,0)" stroke="rgb(0,0,0)" stroke-width="1" opacity="0.8666666666666667" d="M 719.5 80 L 720.5 82 L 719.5 80 Z " /><path fill="rgb(0,0,0)" stroke="rgb(0,0,0)" stroke-width="1" opacity="0.8666666666666667" d="M 601.5 83 L 600.5 85 L 601.5 83 Z " /><path fill="rgb(0,0,0)" stroke="rgb(0,0,0)" stroke-width="1" opacity="0.8666666666666667" d="M 723.5 83 L 724.5 85 L 723.5 83 Z " /><path fill="rgb(0,0,0)" stroke="rgb(0,0,0)" stroke-width="1" opacity="0.8666666666666667" d="M 595.5 88 L 575.5 109 L 595.5 88 Z " /><path fill="rgb(0,0,0)" stroke="rgb(0,0,0)" stroke-width="1" opacity="0.8666666666666667" d="M 729.5 88 L 735.5 95 L 729.5 88 Z " /><path fill="rgb(0,0,0)" stroke="rgb(0,0,0)" stroke-width="1" opacity="0.8666666666666667" d="M 742.5 103 L 743.5 105 L 742.5 103 Z " /><path fill="rgb(0,0,0)" stroke="rgb(0,0,0)" stroke-width="1" opacity="0.8666666666666667" d="M 554.5 130 L 534.5 151 L 554.5 130 Z " /><path fill="rgb(0,0,0)" stroke="rgb(0,0,0)" stroke-width="1" opacity="0.8666666666666667" d="M 658.5 137 L 661 137.5 L 658.5 138 L 658.5 137 Z " /><path fill="rgb(0,0,0)" stroke="rgb(0,0,0)" stroke-width="1" opacity="0.8666666666666667" d="M 664.5 137 L 667 137.5 L 664.5 138 L 664.5 137 Z " /><path fill="rgb(0,0,0)" stroke="rgb(0,0,0)" stroke-width="1" opacity="0.8666666666666667" d="M 682.5 147 L 683.5 149 L 682.5 147 Z " /><path fill="rgb(0,0,0)" stroke="rgb(0,0,0)" stroke-width="1" opacity="0.8666666666666667" d="M 761.5 150 L 762 152.5 L 761 152.5 L 761.5 150 Z " /><path fill="rgb(0,0,0)" stroke="rgb(0,0,0)" stroke-width="1" opacity="0.8666666666666667" d="M 687.5 158 L 688 160.5 L 687 160.5 L 687.5 158 Z " /><path fill="rgb(0,0,0)" stroke="rgb(0,0,0)" stroke-width="1" opacity="0.8666666666666667" d="M 626.5 163 L 607.5 183 L 626.5 163 Z " /><path fill="rgb(0,0,0)" stroke="rgb(0,0,0)" stroke-width="1" opacity="0.8666666666666667" d="M 687.5 164 L 688 166.5 L 687 166.5 L 687.5 164 Z " /><path fill="rgb(0,0,0)" stroke="rgb(0,0,0)" stroke-width="1" opacity="0.8666666666666667" d="M 513.5 172 L 494.5 192 L 513.5 172 Z " /><path fill="rgb(0,0,0)" stroke="rgb(0,0,0)" stroke-width="1" opacity="0.8666666666666667" d="M 683.5 176 L 682.5 178 L 683.5 176 Z " /><path fill="rgb(0,0,0)" stroke="rgb(0,0,0)" stroke-width="1" opacity="0.8666666666666667" d="M 678.5 182 L 672.5 189 L 678.5 182 Z " /><path fill="rgb(0,0,0)" stroke="rgb(0,0,0)" stroke-width="1" opacity="0.8666666666666667" d="M 663.5 198 L 656.5 206 L 663.5 198 Z " /><path fill="rgb(0,0,0)" stroke="rgb(0,0,0)" stroke-width="1" opacity="0.8666666666666667" d="M 586.5 204 L 566.5 225 L 586.5 204 Z " /><path fill="rgb(0,0,0)" stroke="rgb(0,0,0)" stroke-width="1" opacity="0.8666666666666667" d="M 473.5 213 L 455.5 232 L 473.5 213 Z " /><path fill="rgb(0,0,0)" stroke="rgb(0,0,0)" stroke-width="1" opacity="0.8666666666666667" d="M 648.5 214 L 641.5 222 L 648.5 214 Z " /><path fill="rgb(0,0,0)" stroke="rgb(0,0,0)" stroke-width="1" opacity="0.8666666666666667" d="M 743.5 220 L 742.5 222 L 743.5 220 Z " /><path fill="rgb(0,0,0)" stroke="rgb(0,0,0)" stroke-width="1" opacity="0.8666666666666667" d="M 740.5 224 L 739.5 226 L 740.5 224 Z " /><path fill="rgb(0,0,0)" stroke="rgb(0,0,0)" stroke-width="1" opacity="0.8666666666666667" d="M 633.5 230 L 626.5 238 L 633.5 230 Z " /><path fill="rgb(0,0,0)" stroke="rgb(0,0,0)" stroke-width="1" opacity="0.8666666666666667" d="M 735.5 230 L 730.5 236 L 735.5 230 Z " /><path fill="rgb(0,0,0)" stroke="rgb(0,0,0)" stroke-width="1" opacity="0.8666666666666667" d="M 722.5 244 L 715.5 252 L 722.5 244 Z " /><path fill="rgb(0,0,0)" stroke="rgb(0,0,0)" stroke-width="1" opacity="0.8666666666666667" d="M 545.5 246 L 525.5 267 L 545.5 246 Z " /><path fill="rgb(0,0,0)" stroke="rgb(0,0,0)" stroke-width="1" opacity="0.8666666666666667" d="M 617.5 247 L 611.5 254 L 617.5 247 Z " /><path fill="rgb(0,0,0)" stroke="rgb(0,0,0)" stroke-width="1" opacity="0.8666666666666667" d="M 433.5 254 L 413.5 275 L 433.5 254 Z " /><path fill="rgb(0,0,0)" stroke="rgb(0,0,0)" stroke-width="1" opacity="0.8666666666666667" d="M 706.5 261 L 700.5 268 L 706.5 261 Z " /><path fill="rgb(0,0,0)" stroke="rgb(0,0,0)" stroke-width="1" opacity="0.8666666666666667" d="M 602.5 263 L 596.5 270 L 602.5 263 Z " /><path fill="rgb(0,0,0)" stroke="rgb(0,0,0)" stroke-width="1" opacity="0.8666666666666667" d="M 691.5 277 L 684.5 285 L 691.5 277 Z " /><path fill="rgb(0,0,0)" stroke="rgb(0,0,0)" stroke-width="1" opacity="0.8666666666666667" d="M 587.5 279 L 580.5 287 L 587.5 279 Z " /><path fill="rgb(0,0,0)" stroke="rgb(0,0,0)" stroke-width="1" opacity="0.8666666666666667" d="M 676.5 293 L 669.5 301 L 676.5 293 Z " /><path fill="rgb(0,0,0)" stroke="rgb(0,0,0)" stroke-width="1" opacity="0.8666666666666667" d="M 572.5 295 L 565.5 303 L 572.5 295 Z " /><path fill="rgb(0,0,0)" stroke="rgb(0,0,0)" stroke-width="1" opacity="0.8666666666666667" d="M 392.5 296 L 372.5 317 L 392.5 296 Z " /><path fill="rgb(0,0,0)" stroke="rgb(0,0,0)" stroke-width="1" opacity="0.8666666666666667" d="M 660.5 310 L 654.5 317 L 660.5 310 Z " /><path fill="rgb(0,0,0)" stroke="rgb(0,0,0)" stroke-width="1" opacity="0.8666666666666667" d="M 557.5 311 L 550.5 319 L 557.5 311 Z " /><path fill="rgb(0,0,0)" stroke="rgb(0,0,0)" stroke-width="1" opacity="0.8666666666666667" d="M 645.5 326 L 638.5 334 L 645.5 326 Z " /><path fill="rgb(0,0,0)" stroke="rgb(0,0,0)" stroke-width="1" opacity="0.8666666666666667" d="M 457.5 336 L 465 342.5 L 458.5 337 L 447.5 347 L 457.5 336 Z " /><path fill="rgb(0,0,0)" stroke="rgb(0,0,0)" stroke-width="1" opacity="0.8666666666666667" d="M 352.5 337 L 332.5 358 L 352.5 337 Z " /><path fill="rgb(0,0,0)" stroke="rgb(0,0,0)" stroke-width="1" opacity="0.8666666666666667" d="M 630.5 342 L 623.5 350 L 630.5 342 Z " /><path fill="rgb(0,0,0)" stroke="rgb(0,0,0)" stroke-width="1" opacity="0.8666666666666667" d="M 614.5 359 L 607.5 367 L 614.5 359 Z " /><path fill="rgb(0,0,0)" stroke="rgb(0,0,0)" stroke-width="1" opacity="0.8666666666666667" d="M 426.5 368 L 406.5 389 L 426.5 368 Z " /><path fill="rgb(0,0,0)" stroke="rgb(0,0,0)" stroke-width="1" opacity="0.8666666666666667" d="M 311.5 379 L 292.5 399 L 311.5 379 Z " /><path fill="rgb(0,0,0)" stroke="rgb(0,0,0)" stroke-width="1" opacity="0.8666666666666667" d="M 385.5 410 L 365.5 431 L 385.5 410 Z " /><path fill="rgb(0,0,0)" stroke="rgb(0,0,0)" stroke-width="1" opacity="0.8666666666666667" d="M 271.5 420 L 251.5 441 L 271.5 420 Z " /><path fill="rgb(0,0,0)" stroke="rgb(0,0,0)" stroke-width="1" opacity="0.8666666666666667" d="M 653.5 426 L 655.5 429 L 653.5 426 Z " /><path fill="rgb(0,0,0)" stroke="rgb(0,0,0)" stroke-width="1" opacity="0.8666666666666667" d="M 570.5 448 L 573.5 452 L 570.5 448 Z " /><path fill="rgb(0,0,0)" stroke="rgb(0,0,0)" stroke-width="1" opacity="0.8666666666666667" d="M 343.5 453 L 323.5 474 L 343.5 453 Z " /><path fill="rgb(0,0,0)" stroke="rgb(0,0,0)" stroke-width="1" opacity="0.8666666666666667" d="M 573.5 453 L 567.5 460 L 573.5 453 Z " /><path fill="rgb(0,0,0)" stroke="rgb(0,0,0)" stroke-width="1" opacity="0.8666666666666667" d="M 230.5 462 L 212.5 481 L 230.5 462 Z " /><path fill="rgb(0,0,0)" stroke="rgb(0,0,0)" stroke-width="1" opacity="0.8666666666666667" d="M 556.5 471 L 544.5 484 L 556.5 471 Z " /><path fill="rgb(0,0,0)" stroke="rgb(0,0,0)" stroke-width="1" opacity="0.8666666666666667" d="M 648.5 480 L 646.5 483 L 648.5 480 Z " /><path fill="rgb(0,0,0)" stroke="rgb(0,0,0)" stroke-width="1" opacity="0.8666666666666667" d="M 643.5 486 L 640.5 490 L 643.5 486 Z " /><path fill="rgb(0,0,0)" stroke="rgb(0,0,0)" stroke-width="1" opacity="0.8666666666666667" d="M 637.5 493 L 634.5 497 L 637.5 493 Z " /><path fill="rgb(0,0,0)" stroke="rgb(0,0,0)" stroke-width="1" opacity="0.8666666666666667" d="M 302.5 495 L 282.5 516 L 302.5 495 Z " /><path fill="rgb(0,0,0)" stroke="rgb(0,0,0)" stroke-width="1" opacity="0.8666666666666667" d="M 531.5 495 L 527.5 500 L 531.5 495 Z " /><path fill="rgb(0,0,0)" stroke="rgb(0,0,0)" stroke-width="1" opacity="0.8666666666666667" d="M 190.5 503 L 172.5 522 L 190.5 503 Z " /><path fill="rgb(0,0,0)" stroke="rgb(0,0,0)" stroke-width="1" opacity="0.8666666666666667" d="M 628.5 503 L 625.5 507 L 628.5 503 Z " /><path fill="rgb(0,0,0)" stroke="rgb(0,0,0)" stroke-width="1" opacity="0.8666666666666667" d="M 521.5 504 L 517.5 509 L 521.5 504 Z " /><path fill="rgb(0,0,0)" stroke="rgb(0,0,0)" stroke-width="1" opacity="0.8666666666666667" d="M 512.5 512 L 510.5 515 L 512.5 512 Z " /><path fill="rgb(0,0,0)" stroke="rgb(0,0,0)" stroke-width="1" opacity="0.8666666666666667" d="M 617.5 515 L 590.5 543 L 617.5 515 Z " /><path fill="rgb(0,0,0)" stroke="rgb(0,0,0)" stroke-width="1" opacity="0.8666666666666667" d="M 506.5 517 L 504.5 520 L 506.5 517 Z " /><path fill="rgb(0,0,0)" stroke="rgb(0,0,0)" stroke-width="1" opacity="0.8666666666666667" d="M 499.5 523 L 498.5 525 L 499.5 523 Z " /><path fill="rgb(0,0,0)" stroke="rgb(0,0,0)" stroke-width="1" opacity="0.8666666666666667" d="M 494.5 527 L 493.5 529 L 494.5 527 Z " /><path fill="rgb(0,0,0)" stroke="rgb(0,0,0)" stroke-width="1" opacity="0.8666666666666667" d="M 489.5 531 L 488.5 533 L 489.5 531 Z " /><path fill="rgb(0,0,0)" stroke="rgb(0,0,0)" stroke-width="1" opacity="0.8666666666666667" d="M 485.5 534 L 484.5 536 L 485.5 534 Z " /><path fill="rgb(0,0,0)" stroke="rgb(0,0,0)" stroke-width="1" opacity="0.8666666666666667" d="M 261.5 537 L 241.5 558 L 261.5 537 Z " /><path fill="rgb(0,0,0)" stroke="rgb(0,0,0)" stroke-width="1" opacity="0.8666666666666667" d="M 480.5 538 L 479.5 540 L 480.5 538 Z " /><path fill="rgb(0,0,0)" stroke="rgb(0,0,0)" stroke-width="1" opacity="0.8666666666666667" d="M 476.5 541 L 475.5 543 L 476.5 541 Z " /><path fill="rgb(0,0,0)" stroke="rgb(0,0,0)" stroke-width="1" opacity="0.8666666666666667" d="M 150.5 544 L 130.5 565 L 150.5 544 Z " /><path fill="rgb(0,0,0)" stroke="rgb(0,0,0)" stroke-width="1" opacity="0.8666666666666667" d="M 465.5 549 L 464.5 551 L 465.5 549 Z " /><path fill="rgb(0,0,0)" stroke="rgb(0,0,0)" stroke-width="1" opacity="0.8666666666666667" d="M 581.5 550 L 575.5 557 L 581.5 550 Z " /><path fill="rgb(0,0,0)" stroke="rgb(0,0,0)" stroke-width="1" opacity="0.8666666666666667" d="M 452.5 558 L 451.5 560 L 452.5 558 Z " /><path fill="rgb(0,0,0)" stroke="rgb(0,0,0)" stroke-width="1" opacity="0.8666666666666667" d="M 449.5 560 L 448.5 562 L 449.5 560 Z " /><path fill="rgb(0,0,0)" stroke="rgb(0,0,0)" stroke-width="1" opacity="0.8666666666666667" d="M 569.5 561 L 566.5 565 L 569.5 561 Z " /><path fill="rgb(0,0,0)" stroke="rgb(0,0,0)" stroke-width="1" opacity="0.8666666666666667" d="M 446.5 562 L 445.5 564 L 446.5 562 Z " /><path fill="rgb(0,0,0)" stroke="rgb(0,0,0)" stroke-width="1" opacity="0.8666666666666667" d="M 561.5 568 L 559.5 571 L 561.5 568 Z " /><path fill="rgb(0,0,0)" stroke="rgb(0,0,0)" stroke-width="1" opacity="0.8666666666666667" d="M 555.5 573 L 553.5 576 L 555.5 573 Z " /><path fill="rgb(0,0,0)" stroke="rgb(0,0,0)" stroke-width="1" opacity="0.8666666666666667" d="M 549.5 578 L 548.5 580 L 549.5 578 Z " /><path fill="rgb(0,0,0)" stroke="rgb(0,0,0)" stroke-width="1" opacity="0.8666666666666667" d="M 220.5 579 L 200.5 600 L 220.5 579 Z " /><path fill="rgb(0,0,0)" stroke="rgb(0,0,0)" stroke-width="1" opacity="0.8666666666666667" d="M 543.5 583 L 542.5 585 L 543.5 583 Z " /><path fill="rgb(0,0,0)" stroke="rgb(0,0,0)" stroke-width="1" opacity="0.8666666666666667" d="M 109.5 586 L 89.5 607 L 109.5 586 Z " /><path fill="rgb(0,0,0)" stroke="rgb(0,0,0)" stroke-width="1" opacity="0.8666666666666667" d="M 538.5 587 L 537.5 589 L 538.5 587 Z " /><path fill="rgb(0,0,0)" stroke="rgb(0,0,0)" stroke-width="1" opacity="0.8666666666666667" d="M 533.5 591 L 532.5 593 L 533.5 591 Z " /><path fill="rgb(0,0,0)" stroke="rgb(0,0,0)" stroke-width="1" opacity="0.8666666666666667" d="M 529.5 594 L 528.5 596 L 529.5 594 Z " /><path fill="rgb(0,0,0)" stroke="rgb(0,0,0)" stroke-width="1" opacity="0.8666666666666667" d="M 525.5 597 L 524.5 599 L 525.5 597 Z " /><path fill="rgb(0,0,0)" stroke="rgb(0,0,0)" stroke-width="1" opacity="0.8666666666666667" d="M 517.5 603 L 516.5 605 L 517.5 603 Z " /><path fill="rgb(0,0,0)" stroke="rgb(0,0,0)" stroke-width="1" opacity="0.8666666666666667" d="M 513.5 606 L 512.5 608 L 513.5 606 Z " /><path fill="rgb(0,0,0)" stroke="rgb(0,0,0)" stroke-width="1" opacity="0.8666666666666667" d="M 492.5 621 L 491.5 623 L 492.5 621 Z " /><path fill="rgb(0,0,0)" stroke="rgb(0,0,0)" stroke-width="1" opacity="0.8666666666666667" d="M 178.5 622 L 159.5 642 L 178.5 622 Z " /><path fill="rgb(0,0,0)" stroke="rgb(0,0,0)" stroke-width="1" opacity="0.8666666666666667" d="M 69.5 627 L 49.5 648 L 69.5 627 Z " /><path fill="rgb(0,0,0)" stroke="rgb(0,0,0)" stroke-width="1" opacity="0.8666666666666667" d="M 223.5 647 L 226 647.5 L 223.5 648 L 223.5 647 Z " /><path fill="rgb(0,0,0)" stroke="rgb(0,0,0)" stroke-width="1" opacity="0.8666666666666667" d="M 212.5 648 L 216 648.5 L 212.5 649 L 212.5 648 Z " /><path fill="rgb(0,0,0)" stroke="rgb(0,0,0)" stroke-width="1" opacity="0.8666666666666667" d="M 159.5 649 L 164 649.5 L 159.5 650 L 159.5 649 Z " /><path fill="rgb(0,0,0)" stroke="rgb(0,0,0)" stroke-width="1" opacity="0.8666666666666667" d="M 193.5 649 L 200 649.5 L 193.5 650 L 193.5 649 Z " /><path fill="rgb(0,0,0)" stroke="rgb(0,0,0)" stroke-width="1" opacity="0.8666666666666667" d="M 45.5 652 L 44.5 654 L 45.5 652 Z " /><path fill="rgb(0,0,0)" stroke="rgb(0,0,0)" stroke-width="1" opacity="0.8666666666666667" d="M 44.5 696 L 45.5 698 L 44.5 696 Z " /><path fill="rgb(0,0,0)" stroke="rgb(0,0,0)" stroke-width="1" opacity="0.8666666666666667" d="M 237.5 720 L 240 720.5 L 237.5 721 L 237.5 720 Z " /><path fill="rgb(0,0,0)" stroke="rgb(0,0,0)" stroke-width="1" opacity="0.8666666666666667" d="M 129.5 721 L 132 721.5 L 129.5 722 L 129.5 721 Z " /><path fill="rgb(0,0,0)" stroke="rgb(0,0,0)" stroke-width="1" opacity="0.8666666666666667" d="M 227.5 721 L 230 721.5 L 227.5 722 L 227.5 721 Z " /><path fill="rgb(0,0,0)" stroke="rgb(0,0,0)" stroke-width="1" opacity="0.8666666666666667" d="M 140.5 722 L 144 722.5 L 140.5 723 L 140.5 722 Z " /><path fill="rgb(0,0,0)" stroke="rgb(0,0,0)" stroke-width="1" opacity="0.8666666666666667" d="M 216.5 722 L 220 722.5 L 216.5 723 L 216.5 722 Z " /><path fill="rgb(0,0,0)" stroke="rgb(0,0,0)" stroke-width="1" opacity="0.8666666666666667" d="M 152.5 723 L 155 723.5 L 152.5 724 L 152.5 723 Z " /><path fill="rgb(0,0,0)" stroke="rgb(0,0,0)" stroke-width="1" opacity="0.8666666666666667" d="M 200.5 723 L 204 723.5 L 200.5 724 L 200.5 723 Z " /><path fill="rgb(0,0,0)" stroke="rgb(0,0,0)" stroke-width="1" opacity="0.40784313725490196" d="M 657.5 62 L 668 62.5 L 657.5 63 L 657.5 62 Z " /><path fill="rgb(0,0,0)" stroke="rgb(0,0,0)" stroke-width="1" opacity="0.40784313725490196" d="M 599.5 84 L 596.5 88 L 599.5 84 Z " /><path fill="rgb(0,0,0)" stroke="rgb(0,0,0)" stroke-width="1" opacity="0.40784313725490196" d="M 725.5 84 L 728.5 88 L 725.5 84 Z " /><path fill="rgb(0,0,0)" stroke="rgb(0,0,0)" stroke-width="1" opacity="0.40784313725490196" d="M 736.5 95 L 739.5 99 L 736.5 95 Z " /><path fill="rgb(0,0,0)" stroke="rgb(0,0,0)" stroke-width="1" opacity="0.40784313725490196" d="M 741.5 101 L 742.5 103 L 741.5 101 Z " /><path fill="rgb(0,0,0)" stroke="rgb(0,0,0)" stroke-width="1" opacity="0.40784313725490196" d="M 744.5 105 L 745.5 107 L 744.5 105 Z " /><path fill="rgb(0,0,0)" stroke="rgb(0,0,0)" stroke-width="1" opacity="0.40784313725490196" d="M 574.5 109 L 556.5 128 L 574.5 109 Z " /><path fill="rgb(0,0,0)" stroke="rgb(0,0,0)" stroke-width="1" opacity="0.40784313725490196" d="M 661.5 137 L 664 137.5 L 661.5 138 L 661.5 137 Z " /><path fill="rgb(0,0,0)" stroke="rgb(0,0,0)" stroke-width="1" opacity="0.40784313725490196" d="M 648.5 141 L 627.5 163 L 648.5 141 Z " /><path fill="rgb(0,0,0)" stroke="rgb(0,0,0)" stroke-width="1" opacity="0.40784313725490196" d="M 677.5 142 L 681.5 147 L 677.5 142 Z " /><path fill="rgb(0,0,0)" stroke="rgb(0,0,0)" stroke-width="1" opacity="0.40784313725490196" d="M 533.5 151 L 516.5 169 L 533.5 151 Z " /><path fill="rgb(0,0,0)" stroke="rgb(0,0,0)" stroke-width="1" opacity="0.40784313725490196" d="M 762.5 158 L 763 166.5 L 762 166.5 L 762.5 158 Z " /><path fill="rgb(0,0,0)" stroke="rgb(0,0,0)" stroke-width="1" opacity="0.40784313725490196" d="M 687.5 161 L 688 163.5 L 687 163.5 L 687.5 161 Z " /><path fill="rgb(0,0,0)" stroke="rgb(0,0,0)" stroke-width="1" opacity="0.40784313725490196" d="M 761.5 174 L 762 176.5 L 761 176.5 L 761.5 174 Z " /><path fill="rgb(0,0,0)" stroke="rgb(0,0,0)" stroke-width="1" opacity="0.40784313725490196" d="M 681.5 178 L 680.5 180 L 681.5 178 Z " /><path fill="rgb(0,0,0)" stroke="rgb(0,0,0)" stroke-width="1" opacity="0.40784313725490196" d="M 604.5 186 L 587.5 204 L 604.5 186 Z " /><path fill="rgb(0,0,0)" stroke="rgb(0,0,0)" stroke-width="1" opacity="0.40784313725490196" d="M 671.5 189 L 664.5 197 L 671.5 189 Z " /><path fill="rgb(0,0,0)" stroke="rgb(0,0,0)" stroke-width="1" opacity="0.40784313725490196" d="M 493.5 192 L 475.5 211 L 493.5 192 Z " /><path fill="rgb(0,0,0)" stroke="rgb(0,0,0)" stroke-width="1" opacity="0.40784313725490196" d="M 655.5 206 L 649.5 213 L 655.5 206 Z " /><path fill="rgb(0,0,0)" stroke="rgb(0,0,0)" stroke-width="1" opacity="0.40784313725490196" d="M 745.5 218 L 744.5 220 L 745.5 218 Z " /><path fill="rgb(0,0,0)" stroke="rgb(0,0,0)" stroke-width="1" opacity="0.40784313725490196" d="M 640.5 222 L 634.5 229 L 640.5 222 Z " /><path fill="rgb(0,0,0)" stroke="rgb(0,0,0)" stroke-width="1" opacity="0.40784313725490196" d="M 742.5 222 L 741.5 224 L 742.5 222 Z " /><path fill="rgb(0,0,0)" stroke="rgb(0,0,0)" stroke-width="1" opacity="0.40784313725490196" d="M 564.5 227 L 546.5 246 L 564.5 227 Z " /><path fill="rgb(0,0,0)" stroke="rgb(0,0,0)" stroke-width="1" opacity="0.40784313725490196" d="M 738.5 227 L 736.5 230 L 738.5 227 Z " /><path fill="rgb(0,0,0)" stroke="rgb(0,0,0)" stroke-width="1" opacity="0.40784313725490196" d="M 452.5 234 L 435.5 252 L 452.5 234 Z " /><path fill="rgb(0,0,0)" stroke="rgb(0,0,0)" stroke-width="1" opacity="0.40784313725490196" d="M 729.5 237 L 723.5 244 L 729.5 237 Z " /><path fill="rgb(0,0,0)" stroke="rgb(0,0,0)" stroke-width="1" opacity="0.40784313725490196" d="M 625.5 238 L 618.5 246 L 625.5 238 Z " /><path fill="rgb(0,0,0)" stroke="rgb(0,0,0)" stroke-width="1" opacity="0.40784313725490196" d="M 714.5 253 L 707.5 261 L 714.5 253 Z " /><path fill="rgb(0,0,0)" stroke="rgb(0,0,0)" stroke-width="1" opacity="0.40784313725490196" d="M 610.5 254 L 603.5 262 L 610.5 254 Z " /><path fill="rgb(0,0,0)" stroke="rgb(0,0,0)" stroke-width="1" opacity="0.40784313725490196" d="M 523.5 269 L 511.5 282 L 523.5 269 Z " /><path fill="rgb(0,0,0)" stroke="rgb(0,0,0)" stroke-width="1" opacity="0.40784313725490196" d="M 699.5 269 L 692.5 277 L 699.5 269 Z " /><path fill="rgb(0,0,0)" stroke="rgb(0,0,0)" stroke-width="1" opacity="0.40784313725490196" d="M 595.5 270 L 588.5 278 L 595.5 270 Z " /><path fill="rgb(0,0,0)" stroke="rgb(0,0,0)" stroke-width="1" opacity="0.40784313725490196" d="M 412.5 275 L 394.5 294 L 412.5 275 Z " /><path fill="rgb(0,0,0)" stroke="rgb(0,0,0)" stroke-width="1" opacity="0.40784313725490196" d="M 511.5 283 L 547.5 320 L 511.5 283 Z " /><path fill="rgb(0,0,0)" stroke="rgb(0,0,0)" stroke-width="1" opacity="0.40784313725490196" d="M 683.5 286 L 677.5 293 L 683.5 286 Z " /><path fill="rgb(0,0,0)" stroke="rgb(0,0,0)" stroke-width="1" opacity="0.40784313725490196" d="M 579.5 287 L 573.5 294 L 579.5 287 Z " /><path fill="rgb(0,0,0)" stroke="rgb(0,0,0)" stroke-width="1" opacity="0.40784313725490196" d="M 668.5 302 L 661.5 310 L 668.5 302 Z " /><path fill="rgb(0,0,0)" stroke="rgb(0,0,0)" stroke-width="1" opacity="0.40784313725490196" d="M 564.5 303 L 558.5 310 L 564.5 303 Z " /><path fill="rgb(0,0,0)" stroke="rgb(0,0,0)" stroke-width="1" opacity="0.40784313725490196" d="M 371.5 317 L 354.5 335 L 371.5 317 Z " /><path fill="rgb(0,0,0)" stroke="rgb(0,0,0)" stroke-width="1" opacity="0.40784313725490196" d="M 653.5 318 L 646.5 326 L 653.5 318 Z " /><path fill="rgb(0,0,0)" stroke="rgb(0,0,0)" stroke-width="1" opacity="0.40784313725490196" d="M 637.5 335 L 631.5 342 L 637.5 335 Z " /><path fill="rgb(0,0,0)" stroke="rgb(0,0,0)" stroke-width="1" opacity="0.40784313725490196" d="M 465.5 343 L 569.5 448 L 465.5 343 Z " /><path fill="rgb(0,0,0)" stroke="rgb(0,0,0)" stroke-width="1" opacity="0.40784313725490196" d="M 445.5 349 L 427.5 368 L 445.5 349 Z " /><path fill="rgb(0,0,0)" stroke="rgb(0,0,0)" stroke-width="1" opacity="0.40784313725490196" d="M 622.5 351 L 615.5 359 L 622.5 351 Z " /><path fill="rgb(0,0,0)" stroke="rgb(0,0,0)" stroke-width="1" opacity="0.40784313725490196" d="M 331.5 358 L 314.5 376 L 331.5 358 Z " /><path fill="rgb(0,0,0)" stroke="rgb(0,0,0)" stroke-width="1" opacity="0.40784313725490196" d="M 606.5 368 L 602.5 373 L 606.5 368 Z " /><path fill="rgb(0,0,0)" stroke="rgb(0,0,0)" stroke-width="1" opacity="0.40784313725490196" d="M 602.5 374 L 653.5 426 L 602.5 374 Z " /><path fill="rgb(0,0,0)" stroke="rgb(0,0,0)" stroke-width="1" opacity="0.40784313725490196" d="M 403.5 392 L 386.5 410 L 403.5 392 Z " /><path fill="rgb(0,0,0)" stroke="rgb(0,0,0)" stroke-width="1" opacity="0.40784313725490196" d="M 291.5 399 L 273.5 418 L 291.5 399 Z " /><path fill="rgb(0,0,0)" stroke="rgb(0,0,0)" stroke-width="1" opacity="0.40784313725490196" d="M 362.5 434 L 344.5 453 L 362.5 434 Z " /><path fill="rgb(0,0,0)" stroke="rgb(0,0,0)" stroke-width="1" opacity="0.40784313725490196" d="M 250.5 441 L 233.5 459 L 250.5 441 Z " /><path fill="rgb(0,0,0)" stroke="rgb(0,0,0)" stroke-width="1" opacity="0.40784313725490196" d="M 662.5 446 L 663 453.5 L 662 453.5 L 662.5 446 Z " /><path fill="rgb(0,0,0)" stroke="rgb(0,0,0)" stroke-width="1" opacity="0.40784313725490196" d="M 566.5 460 L 560.5 467 L 566.5 460 Z " /><path fill="rgb(0,0,0)" stroke="rgb(0,0,0)" stroke-width="1" opacity="0.40784313725490196" d="M 656.5 470 L 655.5 472 L 656.5 470 Z " /><path fill="rgb(0,0,0)" stroke="rgb(0,0,0)" stroke-width="1" opacity="0.40784313725490196" d="M 654.5 473 L 652.5 476 L 654.5 473 Z " /><path fill="rgb(0,0,0)" stroke="rgb(0,0,0)" stroke-width="1" opacity="0.40784313725490196" d="M 322.5 475 L 303.5 495 L 322.5 475 Z " /><path fill="rgb(0,0,0)" stroke="rgb(0,0,0)" stroke-width="1" opacity="0.40784313725490196" d="M 650.5 478 L 649.5 480 L 650.5 478 Z " /><path fill="rgb(0,0,0)" stroke="rgb(0,0,0)" stroke-width="1" opacity="0.40784313725490196" d="M 211.5 481 L 192.5 501 L 211.5 481 Z " /><path fill="rgb(0,0,0)" stroke="rgb(0,0,0)" stroke-width="1" opacity="0.40784313725490196" d="M 645.5 484 L 644.5 486 L 645.5 484 Z " /><path fill="rgb(0,0,0)" stroke="rgb(0,0,0)" stroke-width="1" opacity="0.40784313725490196" d="M 541.5 485 L 532.5 495 L 541.5 485 Z " /><path fill="rgb(0,0,0)" stroke="rgb(0,0,0)" stroke-width="1" opacity="0.40784313725490196" d="M 640.5 490 L 638.5 493 L 640.5 490 Z " /><path fill="rgb(0,0,0)" stroke="rgb(0,0,0)" stroke-width="1" opacity="0.40784313725490196" d="M 633.5 498 L 629.5 503 L 633.5 498 Z " /><path fill="rgb(0,0,0)" stroke="rgb(0,0,0)" stroke-width="1" opacity="0.40784313725490196" d="M 525.5 500 L 522.5 504 L 525.5 500 Z " /><path fill="rgb(0,0,0)" stroke="rgb(0,0,0)" stroke-width="1" opacity="0.40784313725490196" d="M 625.5 507 L 618.5 515 L 625.5 507 Z " /><path fill="rgb(0,0,0)" stroke="rgb(0,0,0)" stroke-width="1" opacity="0.40784313725490196" d="M 515.5 509 L 513.5 512 L 515.5 509 Z " /><path fill="rgb(0,0,0)" stroke="rgb(0,0,0)" stroke-width="1" opacity="0.40784313725490196" d="M 509.5 514 L 507.5 517 L 509.5 514 Z " /><path fill="rgb(0,0,0)" stroke="rgb(0,0,0)" stroke-width="1" opacity="0.40784313725490196" d="M 280.5 518 L 262.5 537 L 280.5 518 Z " /><path fill="rgb(0,0,0)" stroke="rgb(0,0,0)" stroke-width="1" opacity="0.40784313725490196" d="M 502.5 520 L 500.5 523 L 502.5 520 Z " /><path fill="rgb(0,0,0)" stroke="rgb(0,0,0)" stroke-width="1" opacity="0.40784313725490196" d="M 169.5 524 L 152.5 542 L 169.5 524 Z " /><path fill="rgb(0,0,0)" stroke="rgb(0,0,0)" stroke-width="1" opacity="0.40784313725490196" d="M 496.5 525 L 495.5 527 L 496.5 525 Z " /><path fill="rgb(0,0,0)" stroke="rgb(0,0,0)" stroke-width="1" opacity="0.40784313725490196" d="M 491.5 529 L 490.5 531 L 491.5 529 Z " /><path fill="rgb(0,0,0)" stroke="rgb(0,0,0)" stroke-width="1" opacity="0.40784313725490196" d="M 487.5 532 L 486.5 534 L 487.5 532 Z " /><path fill="rgb(0,0,0)" stroke="rgb(0,0,0)" stroke-width="1" opacity="0.40784313725490196" d="M 482.5 536 L 481.5 538 L 482.5 536 Z " /><path fill="rgb(0,0,0)" stroke="rgb(0,0,0)" stroke-width="1" opacity="0.40784313725490196" d="M 478.5 539 L 477.5 541 L 478.5 539 Z " /><path fill="rgb(0,0,0)" stroke="rgb(0,0,0)" stroke-width="1" opacity="0.40784313725490196" d="M 474.5 542 L 473.5 544 L 474.5 542 Z " /><path fill="rgb(0,0,0)" stroke="rgb(0,0,0)" stroke-width="1" opacity="0.40784313725490196" d="M 589.5 543 L 583.5 550 L 589.5 543 Z " /><path fill="rgb(0,0,0)" stroke="rgb(0,0,0)" stroke-width="1" opacity="0.40784313725490196" d="M 470.5 545 L 469.5 547 L 470.5 545 Z " /><path fill="rgb(0,0,0)" stroke="rgb(0,0,0)" stroke-width="1" opacity="0.40784313725490196" d="M 463.5 550 L 462.5 552 L 463.5 550 Z " /><path fill="rgb(0,0,0)" stroke="rgb(0,0,0)" stroke-width="1" opacity="0.40784313725490196" d="M 574.5 557 L 571.5 561 L 574.5 557 Z " /><path fill="rgb(0,0,0)" stroke="rgb(0,0,0)" stroke-width="1" opacity="0.40784313725490196" d="M 239.5 560 L 221.5 579 L 239.5 560 Z " /><path fill="rgb(0,0,0)" stroke="rgb(0,0,0)" stroke-width="1" opacity="0.40784313725490196" d="M 129.5 565 L 111.5 584 L 129.5 565 Z " /><path fill="rgb(0,0,0)" stroke="rgb(0,0,0)" stroke-width="1" opacity="0.40784313725490196" d="M 565.5 565 L 563.5 568 L 565.5 565 Z " /><path fill="rgb(0,0,0)" stroke="rgb(0,0,0)" stroke-width="1" opacity="0.40784313725490196" d="M 558.5 571 L 557.5 573 L 558.5 571 Z " /><path fill="rgb(0,0,0)" stroke="rgb(0,0,0)" stroke-width="1" opacity="0.40784313725490196" d="M 552.5 576 L 551.5 578 L 552.5 576 Z " /><path fill="rgb(0,0,0)" stroke="rgb(0,0,0)" stroke-width="1" opacity="0.40784313725490196" d="M 547.5 580 L 545.5 583 L 547.5 580 Z " /><path fill="rgb(0,0,0)" stroke="rgb(0,0,0)" stroke-width="1" opacity="0.40784313725490196" d="M 541.5 585 L 540.5 587 L 541.5 585 Z " /><path fill="rgb(0,0,0)" stroke="rgb(0,0,0)" stroke-width="1" opacity="0.40784313725490196" d="M 536.5 589 L 535.5 591 L 536.5 589 Z " /><path fill="rgb(0,0,0)" stroke="rgb(0,0,0)" stroke-width="1" opacity="0.40784313725490196" d="M 531.5 593 L 530.5 595 L 531.5 593 Z " /><path fill="rgb(0,0,0)" stroke="rgb(0,0,0)" stroke-width="1" opacity="0.40784313725490196" d="M 527.5 596 L 526.5 598 L 527.5 596 Z " /><path fill="rgb(0,0,0)" stroke="rgb(0,0,0)" stroke-width="1" opacity="0.40784313725490196" d="M 523.5 599 L 522.5 601 L 523.5 599 Z " /><path fill="rgb(0,0,0)" stroke="rgb(0,0,0)" stroke-width="1" opacity="0.40784313725490196" d="M 198.5 602 L 179.5 622 L 198.5 602 Z " /><path fill="rgb(0,0,0)" stroke="rgb(0,0,0)" stroke-width="1" opacity="0.40784313725490196" d="M 519.5 602 L 518.5 604 L 519.5 602 Z " /><path fill="rgb(0,0,0)" stroke="rgb(0,0,0)" stroke-width="1" opacity="0.40784313725490196" d="M 515.5 605 L 514.5 607 L 515.5 605 Z " /><path fill="rgb(0,0,0)" stroke="rgb(0,0,0)" stroke-width="1" opacity="0.40784313725490196" d="M 88.5 607 L 71.5 625 L 88.5 607 Z " /><path fill="rgb(0,0,0)" stroke="rgb(0,0,0)" stroke-width="1" opacity="0.40784313725490196" d="M 508.5 610 L 507.5 612 L 508.5 610 Z " /><path fill="rgb(0,0,0)" stroke="rgb(0,0,0)" stroke-width="1" opacity="0.40784313725490196" d="M 501.5 615 L 500.5 617 L 501.5 615 Z " /><path fill="rgb(0,0,0)" stroke="rgb(0,0,0)" stroke-width="1" opacity="0.40784313725490196" d="M 494.5 620 L 493.5 622 L 494.5 620 Z " /><path fill="rgb(0,0,0)" stroke="rgb(0,0,0)" stroke-width="1" opacity="0.40784313725490196" d="M 488.5 624 L 487.5 626 L 488.5 624 Z " /><path fill="rgb(0,0,0)" stroke="rgb(0,0,0)" stroke-width="1" opacity="0.40784313725490196" d="M 485.5 626 L 484.5 628 L 485.5 626 Z " /><path fill="rgb(0,0,0)" stroke="rgb(0,0,0)" stroke-width="1" opacity="0.40784313725490196" d="M 466.5 638 L 465.5 640 L 466.5 638 Z " /><path fill="rgb(0,0,0)" stroke="rgb(0,0,0)" stroke-width="1" opacity="0.40784313725490196" d="M 259.5 641 L 262 641.5 L 259.5 642 L 259.5 641 Z " /><path fill="rgb(0,0,0)" stroke="rgb(0,0,0)" stroke-width="1" opacity="0.40784313725490196" d="M 254.5 642 L 257 642.5 L 254.5 643 L 254.5 642 Z " /><path fill="rgb(0,0,0)" stroke="rgb(0,0,0)" stroke-width="1" opacity="0.40784313725490196" d="M 243.5 644 L 246 644.5 L 243.5 645 L 243.5 644 Z " /><path fill="rgb(0,0,0)" stroke="rgb(0,0,0)" stroke-width="1" opacity="0.40784313725490196" d="M 156.5 645 L 153.5 649 L 156.5 645 Z " /><path fill="rgb(0,0,0)" stroke="rgb(0,0,0)" stroke-width="1" opacity="0.40784313725490196" d="M 236.5 645 L 239 645.5 L 236.5 646 L 236.5 645 Z " /><path fill="rgb(0,0,0)" stroke="rgb(0,0,0)" stroke-width="1" opacity="0.40784313725490196" d="M 228.5 646 L 232 646.5 L 228.5 647 L 228.5 646 Z " /><path fill="rgb(0,0,0)" stroke="rgb(0,0,0)" stroke-width="1" opacity="0.40784313725490196" d="M 218.5 647 L 223 647.5 L 218.5 648 L 218.5 647 Z " /><path fill="rgb(0,0,0)" stroke="rgb(0,0,0)" stroke-width="1" opacity="0.40784313725490196" d="M 48.5 648 L 45.5 652 L 48.5 648 Z " /><path fill="rgb(0,0,0)" stroke="rgb(0,0,0)" stroke-width="1" opacity="0.40784313725490196" d="M 205.5 648 L 212 648.5 L 205.5 649 L 205.5 648 Z " /><path fill="rgb(0,0,0)" stroke="rgb(0,0,0)" stroke-width="1" opacity="0.40784313725490196" d="M 164.5 649 L 193 649.5 L 164.5 650 L 164.5 649 Z " /><path fill="rgb(0,0,0)" stroke="rgb(0,0,0)" stroke-width="1" opacity="0.40784313725490196" d="M 37.5 670 L 38 678.5 L 37 678.5 L 37.5 670 Z " /><path fill="rgb(0,0,0)" stroke="rgb(0,0,0)" stroke-width="1" opacity="0.40784313725490196" d="M 45.5 698 L 50.5 704 L 45.5 698 Z " /><path fill="rgb(0,0,0)" stroke="rgb(0,0,0)" stroke-width="1" opacity="0.40784313725490196" d="M 53.5 705 L 54.5 707 L 53.5 705 Z " /><path fill="rgb(0,0,0)" stroke="rgb(0,0,0)" stroke-width="1" opacity="0.40784313725490196" d="M 271.5 715 L 274 715.5 L 271.5 716 L 271.5 715 Z " /><path fill="rgb(0,0,0)" stroke="rgb(0,0,0)" stroke-width="1" opacity="0.40784313725490196" d="M 95.5 717 L 98 717.5 L 95.5 718 L 95.5 717 Z " /><path fill="rgb(0,0,0)" stroke="rgb(0,0,0)" stroke-width="1" opacity="0.40784313725490196" d="M 102.5 718 L 105 718.5 L 102.5 719 L 102.5 718 Z " /><path fill="rgb(0,0,0)" stroke="rgb(0,0,0)" stroke-width="1" opacity="0.40784313725490196" d="M 254.5 718 L 257 718.5 L 254.5 719 L 254.5 718 Z " /><path fill="rgb(0,0,0)" stroke="rgb(0,0,0)" stroke-width="1" opacity="0.40784313725490196" d="M 109.5 719 L 112 719.5 L 109.5 720 L 109.5 719 Z " /><path fill="rgb(0,0,0)" stroke="rgb(0,0,0)" stroke-width="1" opacity="0.40784313725490196" d="M 247.5 719 L 250 719.5 L 247.5 720 L 247.5 719 Z " /><path fill="rgb(0,0,0)" stroke="rgb(0,0,0)" stroke-width="1" opacity="0.40784313725490196" d="M 116.5 720 L 119 720.5 L 116.5 721 L 116.5 720 Z " /><path fill="rgb(0,0,0)" stroke="rgb(0,0,0)" stroke-width="1" opacity="0.40784313725490196" d="M 240.5 720 L 243 720.5 L 240.5 721 L 240.5 720 Z " /><path fill="rgb(0,0,0)" stroke="rgb(0,0,0)" stroke-width="1" opacity="0.40784313725490196" d="M 124.5 721 L 129 721.5 L 124.5 722 L 124.5 721 Z " /><path fill="rgb(0,0,0)" stroke="rgb(0,0,0)" stroke-width="1" opacity="0.40784313725490196" d="M 230.5 721 L 234 721.5 L 230.5 722 L 230.5 721 Z " /><path fill="rgb(0,0,0)" stroke="rgb(0,0,0)" stroke-width="1" opacity="0.40784313725490196" d="M 135.5 722 L 140 722.5 L 135.5 723 L 135.5 722 Z " /><path fill="rgb(0,0,0)" stroke="rgb(0,0,0)" stroke-width="1" opacity="0.40784313725490196" d="M 220.5 722 L 224 722.5 L 220.5 723 L 220.5 722 Z " /><path fill="rgb(0,0,0)" stroke="rgb(0,0,0)" stroke-width="1" opacity="0.40784313725490196" d="M 147.5 723 L 152 723.5 L 147.5 724 L 147.5 723 Z " /><path fill="rgb(0,0,0)" stroke="rgb(0,0,0)" stroke-width="1" opacity="0.40784313725490196" d="M 204.5 723 L 211 723.5 L 204.5 724 L 204.5 723 Z " /><path fill="rgb(0,0,0)" stroke="rgb(0,0,0)" stroke-width="1" opacity="0.40784313725490196" d="M 165.5 724 L 191 724.5 L 165.5 725 L 165.5 724 Z " /><path fill="rgb(0,0,0)" stroke="rgb(0,0,0)" stroke-width="1" opacity="1" d="M 652.5 63 L 672.5 63 Q 673.8 65.3 678.5 64 L 691.5 67 L 704.5 72 Q 726 82 740 99.5 Q 751.7 113.8 758 133.5 L 762 153.5 L 762 171.5 L 758 191.5 L 754 202.5 L 739 226.5 L 601 373.5 L 656 429.5 Q 660.5 435.5 662 444.5 L 662 455.5 L 658 467.5 L 646 483.5 Q 616.4 518.9 582.5 550 Q 533.3 595.8 475.5 633 Q 429.2 662.7 375.5 685 L 317.5 705 L 258.5 718 L 237.5 720 L 236.5 721 L 227.5 721 L 226.5 722 L 216.5 722 L 215.5 723 L 200.5 723 L 199.5 724 L 155.5 724 L 154.5 723 L 144.5 723 L 143.5 722 L 121.5 721 L 120.5 720 L 93.5 717 L 88.5 715 L 69.5 712 Q 54 709 46 698.5 L 39 685.5 L 38 669.5 L 43 655.5 L 70 626.5 L 599.5 85 L 607.5 79 L 627.5 69 L 652.5 63 Z M 659 137 L 649 141 L 525 268 L 510 283 L 549 321 L 679 183 Q 678 180 681 181 L 688 167 L 688 159 L 684 149 Q 677 137 659 137 Z M 458 336 L 153 649 L 160 650 L 216 649 L 217 648 L 226 648 L 227 647 L 248 645 L 273 640 L 297 634 L 334 622 L 365 609 Q 468 560 545 484 L 574 454 L 574 452 L 458 336 Z " /></svg>