<?xml version="1.0" standalone="no"?>
<!DOCTYPE svg PUBLIC "-//W3C//DTD SVG 20010904//EN"
 "http://www.w3.org/TR/2001/REC-SVG-20010904/DTD/svg10.dtd">
<svg version="1.0" xmlns="http://www.w3.org/2000/svg"
 width="1394.000000pt" height="778.000000pt" viewBox="0 0 1394.000000 778.000000"
 preserveAspectRatio="xMidYMid meet">

<g transform="translate(0.000000,778.000000) scale(0.100000,-0.100000)"
fill="#ffffff" stroke="none">
<path d="M8170 7682 c0 -6 17 -19 37 -29 70 -34 78 -63 77 -268 -2 -328 -47
-843 -82 -950 -16 -47 -20 -51 -59 -59 -46 -11 -57 -33 -20 -40 12 -3 81 -8
152 -11 72 -4 141 -8 154 -8 37 -3 36 20 -1 36 -58 24 -63 38 -61 157 3 138
28 360 49 427 20 63 72 126 127 154 53 28 139 23 184 -9 55 -39 77 -101 81
-235 5 -130 -14 -393 -32 -447 -11 -35 -38 -54 -89 -65 -51 -10 -24 -30 51
-36 140 -13 275 -14 279 -3 2 6 -11 15 -28 20 -18 5 -41 21 -51 35 -19 26 -20
32 -6 195 7 93 13 232 13 309 0 127 -2 144 -23 183 -45 85 -145 129 -271 120
-73 -6 -131 -30 -198 -85 l-43 -34 0 39 c0 22 9 165 20 317 12 153 19 280 16
282 -10 11 -276 16 -276 5z"/>
<path d="M6005 7631 c-66 -4 -180 -5 -254 -3 -125 5 -133 4 -130 -13 3 -13 19
-23 49 -30 25 -7 55 -17 67 -24 27 -14 48 -81 63 -201 13 -107 13 -805 0 -884
-15 -91 -47 -117 -177 -141 -21 -4 -33 -13 -33 -22 0 -14 13 -15 108 -8 59 5
247 9 417 10 282 1 318 4 399 23 217 54 374 195 454 410 33 90 42 282 18 387
-29 121 -79 210 -170 301 -141 141 -288 195 -546 199 -80 2 -199 0 -265 -4z
m354 -56 c165 -39 295 -159 368 -338 134 -331 1 -739 -277 -848 -68 -27 -266
-39 -324 -19 -49 16 -96 56 -113 98 -25 60 -36 309 -30 702 3 206 9 383 12
392 8 20 36 24 185 26 73 1 139 -4 179 -13z"/>
<path d="M10446 7421 c-4 -5 7 -17 22 -27 65 -38 83 -114 57 -249 -53 -285
-185 -814 -232 -933 -27 -67 -44 -82 -92 -82 -38 0 -49 -17 -19 -29 63 -24
324 -79 333 -69 7 7 4 14 -9 22 -66 41 -69 46 -63 111 6 66 54 266 89 375 56
174 124 240 246 240 65 0 108 -21 146 -73 29 -39 34 -162 11 -283 -26 -145
-84 -357 -104 -384 -14 -19 -29 -26 -65 -28 -31 -2 -46 -8 -46 -17 0 -20 2
-21 175 -60 102 -23 161 -33 168 -26 6 6 -2 15 -22 25 -46 24 -65 58 -57 103
4 21 29 127 56 236 61 242 68 304 46 379 -29 101 -138 171 -266 172 -79 1
-119 -10 -184 -49 l-57 -34 6 32 c4 18 35 155 71 306 35 151 64 279 64 285 0
6 -55 22 -123 35 -67 13 -127 25 -133 28 -7 2 -15 0 -18 -6z"/>
<path d="M3740 7343 c-108 -22 -644 -144 -651 -149 -22 -13 -4 -22 64 -27 64
-5 75 -10 99 -36 36 -40 59 -119 114 -385 25 -122 61 -295 80 -386 47 -226 51
-270 30 -324 -17 -45 -45 -65 -109 -81 -31 -8 -44 -23 -31 -35 10 -10 543 95
558 110 17 17 -2 23 -63 21 -75 -3 -114 16 -140 67 -19 37 -77 282 -102 426
-14 80 -15 78 83 101 91 20 183 19 233 -4 78 -35 120 -100 206 -321 36 -92 62
-145 88 -173 l36 -39 75 6 c126 11 295 49 295 66 0 11 -13 15 -55 16 -131 2
-192 58 -273 251 -65 153 -131 215 -271 253 l-59 17 69 38 c92 51 166 126 187
189 51 150 -12 305 -151 373 -52 25 -68 28 -172 30 -63 1 -126 -1 -140 -4z
m119 -69 c78 -33 144 -127 157 -228 13 -93 -38 -203 -123 -266 -45 -33 -231
-99 -289 -103 -37 -2 -37 -1 -50 48 -13 46 -60 299 -82 438 -9 57 -8 58 17 72
32 16 127 44 189 55 58 11 134 4 181 -16z"/>
<path d="M7301 7202 c-15 -11 -82 -222 -75 -234 11 -17 23 -6 72 61 33 45 67
79 99 98 45 26 57 28 176 32 l129 3 -12 -22 c-46 -85 -195 -322 -288 -455
-127 -183 -182 -272 -182 -296 0 -15 30 -17 293 -24 160 -4 310 -5 331 -3 l39
3 28 105 c49 182 39 190 -73 54 -47 -56 -89 -96 -109 -105 -36 -15 -301 -21
-314 -7 -9 9 1 26 235 383 241 367 249 380 233 396 -15 15 -561 25 -582 11z"/>
<path d="M9563 7015 c-125 -34 -231 -123 -290 -243 -37 -74 -38 -79 -38 -186
0 -104 2 -115 31 -176 81 -170 226 -258 410 -248 67 4 94 10 147 36 290 143
363 487 149 701 -67 67 -116 95 -204 116 -77 18 -137 18 -205 0z m205 -51 c20
-8 52 -29 70 -47 147 -141 128 -483 -34 -637 -64 -60 -106 -80 -171 -80 -94 1
-161 51 -210 155 -22 49 -28 78 -31 155 -6 154 35 288 118 383 71 81 170 108
258 71z"/>
<path d="M1655 6791 c-72 -26 -162 -60 -201 -75 -120 -45 -137 -72 -44 -67
126 5 123 -49 -20 -394 -73 -174 -92 -214 -133 -274 l-30 -44 -84 209 c-136
340 -136 343 -54 388 57 31 69 44 47 52 -14 6 -429 -148 -453 -168 -28 -23
-12 -30 51 -23 43 4 72 2 86 -5 38 -21 182 -341 281 -628 57 -166 119 -389
119 -429 0 -34 -20 -60 -85 -112 -11 -9 -13 -17 -6 -24 7 -7 27 -3 63 13 29
13 136 53 236 91 101 37 186 70 189 73 17 16 -15 24 -80 19 -67 -5 -75 -4
-103 20 -33 28 -100 183 -160 370 l-28 88 23 45 c34 64 119 139 174 152 116
30 202 -52 382 -362 58 -101 123 -181 153 -190 21 -7 325 107 320 120 -2 5
-32 9 -68 10 -46 0 -77 6 -105 21 -57 30 -140 121 -218 240 -146 221 -253 281
-431 239 -38 -9 -71 -14 -74 -11 -15 14 174 428 238 519 35 51 83 96 138 130
43 27 56 56 25 56 -10 -1 -77 -22 -148 -49z"/>
<path d="M11535 6578 c-73 -26 -109 -75 -103 -138 2 -22 12 -40 30 -53 43 -32
72 -17 123 63 50 78 67 90 127 90 97 0 167 -81 153 -178 -8 -57 -33 -104 -69
-127 -18 -12 -73 -20 -196 -30 -190 -16 -237 -30 -286 -88 -61 -72 -78 -153
-49 -224 21 -50 41 -70 100 -101 43 -23 62 -27 140 -27 83 0 94 3 146 32 l57
32 -9 -40 c-15 -65 3 -90 85 -117 83 -28 181 -35 181 -13 0 8 -15 18 -35 23
-96 24 -94 99 9 419 58 181 77 265 67 302 -17 67 -119 140 -242 172 -66 17
-184 19 -229 3z m271 -419 c-11 -71 -63 -219 -91 -259 -33 -47 -113 -90 -168
-90 -86 0 -137 51 -137 137 0 110 57 159 239 204 69 16 132 34 140 39 24 14
24 13 17 -31z"/>
<path d="M12355 6390 c-4 -6 9 -29 29 -50 45 -51 47 -86 7 -207 -41 -124 -146
-388 -179 -448 l-27 -50 -62 -3 c-99 -5 -81 -23 80 -82 78 -29 155 -59 170
-67 50 -25 51 -2 2 42 -44 41 -46 45 -39 81 11 64 70 219 120 315 83 161 187
249 295 249 132 0 194 -91 165 -242 -24 -127 -162 -470 -197 -488 -10 -6 -41
-10 -69 -10 -80 0 -58 -19 76 -65 65 -23 139 -51 162 -64 24 -12 51 -20 60
-16 13 5 7 14 -27 45 -41 38 -43 42 -37 80 3 22 40 125 81 230 91 232 105 279
105 347 0 67 -26 120 -80 163 -116 92 -281 92 -409 1 -17 -12 -31 -21 -31 -18
0 2 6 26 14 53 8 27 17 68 21 90 l6 42 -43 16 c-211 77 -185 70 -193 56z"/>
<path d="M4769 6341 c-21 -22 -29 -39 -29 -66 0 -72 86 -119 152 -84 32 17 51
74 38 115 -23 70 -108 88 -161 35z"/>
<path d="M2494 5864 c-89 -44 -59 -184 39 -184 42 0 92 37 101 75 9 36 -17 91
-53 109 -37 20 -48 20 -87 0z"/>
<path d="M6470 5673 c-110 -10 -308 -16 -595 -17 -236 0 -436 -5 -442 -9 -17
-11 -16 -52 0 -66 8 -6 49 -18 93 -27 188 -39 229 -100 274 -401 34 -230 42
-544 37 -1478 -5 -925 -7 -980 -54 -1086 -24 -55 -80 -111 -138 -139 -23 -11
-87 -30 -141 -41 -109 -23 -144 -40 -144 -68 0 -40 23 -45 153 -33 329 32 651
44 967 36 389 -9 504 -7 650 12 359 46 601 160 826 391 l102 103 53 -58 c132
-143 148 -263 42 -325 -16 -9 -67 -22 -111 -29 l-82 -11 0 -44 0 -43 780 0
780 0 0 44 c0 47 -9 56 -60 56 -95 0 -331 99 -490 205 -135 90 -219 163 -464
402 l-215 210 29 74 c122 316 146 761 59 1132 -30 129 -82 275 -140 392 l-49
99 47 47 c205 199 317 301 370 337 136 93 295 156 446 178 36 5 37 6 37 49 l0
45 -600 0 -600 0 0 -44 0 -43 83 -6 c45 -3 98 -11 117 -18 80 -27 110 -90 85
-176 -14 -47 -82 -164 -102 -176 -6 -4 -34 23 -64 59 -101 122 -266 248 -424
324 -294 140 -643 185 -1115 143z m405 -114 c247 -34 442 -126 600 -284 80
-80 194 -244 257 -369 l40 -80 -83 -81 c-46 -44 -185 -176 -309 -292 l-225
-212 -474 -1 -474 0 8 443 c4 243 9 522 10 620 4 203 9 219 75 237 98 27 441
38 575 19z m1003 -1027 c60 -217 85 -522 63 -750 -7 -68 -15 -131 -18 -139 -4
-11 -84 63 -269 248 l-264 264 227 227 c126 126 231 228 234 228 3 0 16 -35
27 -78z m-476 -1029 c202 -202 368 -374 368 -382 0 -25 -99 -194 -165 -283
-204 -272 -447 -390 -810 -392 -219 -1 -315 28 -413 126 -131 130 -160 299
-162 938 -1 190 -1 348 0 353 0 4 183 7 407 7 l407 0 368 -367z"/>
<path d="M1501 2674 c-184 -65 -289 -264 -227 -429 10 -27 59 -113 109 -189
111 -171 131 -219 124 -302 -19 -246 -275 -350 -439 -177 -54 57 -73 117 -73
238 0 61 4 134 8 163 6 34 5 52 -1 52 -6 0 -41 -55 -78 -122 -37 -68 -78 -142
-92 -166 l-25 -44 47 7 c46 7 47 7 84 -36 152 -180 300 -259 457 -247 126 11
250 99 311 223 25 53 29 70 28 150 0 120 -20 169 -140 340 -134 191 -160 259
-134 355 16 61 89 134 150 150 110 30 228 -35 270 -147 24 -64 26 -185 6 -281
-14 -66 -6 -88 17 -50 43 70 156 301 151 309 -3 5 -15 3 -27 -6 -12 -8 -25
-15 -30 -15 -5 0 -52 44 -105 99 -81 82 -107 102 -155 120 -69 25 -171 27
-236 5z"/>
<path d="M12332 2377 c-61 -33 -112 -64 -112 -69 0 -4 20 -8 44 -8 37 0 48 -5
69 -29 14 -17 30 -52 36 -78 12 -50 61 -455 55 -462 -5 -5 -368 304 -397 339
-34 39 -34 74 -2 106 26 26 34 50 13 41 -54 -22 -301 -164 -301 -172 1 -5 15
-9 33 -7 41 5 60 -8 342 -235 347 -277 338 -267 353 -416 11 -101 -17 -147
-90 -147 -38 0 -73 -17 -91 -45 -15 -23 -15 -27 0 -50 13 -19 25 -25 54 -25
78 0 145 62 157 145 4 26 -9 196 -34 431 -22 214 -45 438 -51 498 -11 119 -4
165 30 209 11 14 17 28 13 30 -5 3 -59 -22 -121 -56z"/>
<path d="M10872 2247 c-30 -32 -29 -87 1 -115 51 -48 137 -12 137 57 0 73 -89
110 -138 58z"/>
<path d="M11351 2161 c-9 -6 -11 -23 -6 -65 10 -78 -10 -167 -51 -227 -36 -54
-32 -59 25 -29 l38 19 137 -293 c159 -339 168 -351 254 -351 64 1 145 33 200
80 36 30 72 93 72 125 0 31 -18 24 -25 -10 -23 -105 -153 -140 -228 -62 -32
34 -282 562 -270 571 4 4 51 27 103 51 114 52 104 45 93 64 -7 12 -25 7 -113
-35 l-105 -49 -50 104 c-57 119 -56 118 -74 107z"/>
<path d="M10660 2131 c0 -38 -26 -46 -169 -47 -157 -2 -217 -15 -336 -73 -151
-74 -274 -202 -325 -338 -33 -89 -46 -215 -33 -322 13 -105 57 -238 104 -318
77 -130 222 -240 359 -274 80 -20 239 -15 333 10 176 46 321 155 366 276 25
67 31 255 8 255 -9 0 -13 -23 -14 -87 -1 -120 -26 -184 -96 -251 -58 -54 -93
-75 -175 -103 -270 -93 -520 63 -632 393 -41 124 -54 210 -47 335 13 265 142
430 355 459 67 9 169 -22 242 -73 30 -21 86 -77 123 -123 37 -47 74 -86 82
-88 10 -2 -6 57 -51 192 -44 131 -70 196 -80 196 -8 0 -14 -8 -14 -19z"/>
<path d="M2055 1850 c-337 -107 -376 -546 -65 -737 192 -118 463 -63 580 118
50 78 63 131 58 233 -4 72 -10 96 -41 159 -57 116 -138 188 -255 228 -73 25
-196 25 -277 -1z m319 -43 c160 -88 147 -407 -24 -600 -63 -70 -122 -106 -188
-114 -214 -25 -310 246 -181 512 39 78 85 134 146 177 90 61 167 69 247 25z"/>
<path d="M11013 1762 c-62 -31 -113 -60 -113 -64 0 -5 21 -8 48 -8 87 0 102
-23 208 -315 101 -280 101 -304 9 -369 -11 -8 -17 -17 -14 -20 8 -8 376 126
381 138 2 5 -20 10 -48 10 -59 1 -85 19 -114 76 -9 19 -64 164 -121 322 -57
159 -108 288 -114 287 -5 0 -61 -26 -122 -57z"/>
<path d="M4220 1763 c0 -5 18 -16 40 -25 55 -23 75 -69 65 -153 -19 -175 -126
-926 -136 -956 -17 -49 -47 -78 -88 -85 -46 -7 -65 -13 -59 -19 5 -5 353 -55
385 -55 35 0 27 14 -18 34 -69 31 -76 58 -55 228 33 271 70 390 139 442 93 70
244 44 283 -50 20 -47 17 -117 -11 -326 -39 -285 -59 -328 -147 -328 -26 0
-38 -4 -36 -12 3 -7 68 -21 169 -35 90 -12 181 -25 202 -28 44 -6 50 10 10 26
-16 6 -40 22 -55 37 -36 33 -36 71 -2 319 32 234 30 315 -9 366 -43 57 -123
90 -228 95 -101 5 -143 -6 -212 -54 l-47 -34 6 37 c3 21 22 161 43 311 l37
272 -138 0 c-76 0 -138 -3 -138 -7z"/>
<path d="M2740 1671 c0 -5 15 -20 33 -32 75 -52 75 -75 -8 -373 -36 -128 -65
-246 -65 -262 1 -78 70 -157 170 -195 77 -30 196 -30 268 -1 l52 22 -6 -54 -6
-53 33 -6 c100 -18 210 -29 217 -22 4 4 0 10 -8 13 -8 3 -27 18 -42 33 -45 44
-39 88 56 423 46 163 80 298 77 300 -24 13 -252 68 -258 62 -4 -4 1 -12 12
-19 11 -6 32 -23 48 -38 38 -39 36 -77 -19 -276 -75 -272 -99 -324 -167 -357
-50 -23 -141 -21 -195 5 -107 52 -107 118 0 497 41 144 72 264 69 266 -3 2
-55 18 -116 36 -60 17 -118 33 -127 36 -10 3 -18 1 -18 -5z"/>
<path d="M3862 1564 c-41 -66 -119 -131 -178 -146 -24 -7 -44 -15 -44 -19 0
-4 21 -12 46 -18 40 -10 45 -15 40 -34 -39 -158 -128 -583 -129 -617 -3 -62
22 -96 91 -128 99 -46 230 -42 290 8 37 30 21 44 -18 15 -43 -31 -110 -34
-157 -5 -76 46 -76 80 1 423 35 159 66 290 68 292 2 2 52 -7 112 -20 60 -14
110 -25 112 -25 2 0 4 8 4 18 0 16 -18 23 -110 42 -60 13 -110 26 -110 30 0 4
11 56 25 116 18 82 21 110 12 116 -19 12 -20 11 -55 -48z"/>
<path d="M5564 1579 c-3 -5 1 -11 8 -13 7 -2 33 -9 57 -16 24 -6 57 -24 72
-39 52 -52 53 -74 35 -561 -8 -245 -20 -462 -26 -482 -20 -71 -67 -108 -152
-123 -78 -13 -33 -23 130 -29 92 -3 224 -9 295 -12 89 -4 127 -3 127 5 0 6
-12 13 -27 17 -74 16 -121 52 -142 107 -12 31 -15 275 -4 405 l6 82 51 0 c31
0 65 -7 86 -18 71 -38 154 -182 265 -460 31 -78 60 -144 64 -146 3 -2 73 -7
155 -11 124 -6 148 -5 144 6 -3 8 -14 15 -26 17 -53 8 -118 115 -242 397 -58
132 -89 179 -131 204 -38 21 -36 27 8 36 50 9 111 39 155 75 91 76 121 237 65
352 -45 91 -118 144 -239 173 -57 14 -145 19 -626 39 -56 2 -105 0 -108 -5z
m618 -67 c204 -91 210 -426 10 -535 -45 -24 -60 -27 -152 -27 l-102 0 6 143
c3 78 9 211 12 296 l7 154 88 -6 c54 -3 105 -13 131 -25z"/>
<path d="M6903 1582 c-26 -4 -63 -47 -63 -73 0 -54 54 -98 105 -85 61 15 84
80 45 128 -20 26 -48 36 -87 30z"/>
<path d="M9162 1286 c-62 -20 -121 -64 -152 -113 l-27 -42 -17 59 c-9 33 -22
60 -29 60 -20 0 -211 -60 -220 -69 -4 -4 10 -11 33 -14 47 -6 77 -29 96 -72
12 -29 66 -354 80 -480 9 -84 -11 -131 -66 -152 -44 -18 -53 -33 -17 -32 66 1
371 56 375 67 2 7 -6 12 -23 12 -15 0 -42 7 -61 16 -44 21 -57 59 -89 261 -40
255 -32 368 28 419 44 37 86 31 150 -22 51 -43 117 -22 117 38 0 60 -90 92
-178 64z"/>
<path d="M8233 1155 c-103 -32 -194 -113 -241 -213 -38 -81 -43 -229 -12 -321
65 -195 226 -290 439 -261 145 20 244 90 272 193 18 68 1 78 -26 14 -30 -74
-36 -81 -103 -114 -148 -72 -324 -1 -398 162 -36 79 -67 235 -46 235 27 0 526
60 529 64 3 2 -3 30 -12 62 -21 73 -97 152 -169 177 -59 20 -173 21 -233 2z
m142 -24 c57 -27 94 -70 115 -137 10 -33 17 -60 16 -61 -2 -2 -363 -43 -382
-43 -35 0 15 156 66 205 29 27 90 54 125 54 11 0 38 -8 60 -18z"/>
<path d="M7742 1103 c-44 -3 -62 -8 -59 -16 2 -7 13 -13 24 -15 12 -2 29 -12
39 -23 33 -36 22 -99 -61 -347 -42 -129 -78 -232 -80 -230 -11 10 -198 439
-207 473 -16 59 -4 93 37 111 66 27 41 35 -92 29 -168 -8 -233 -15 -233 -25 0
-5 13 -11 29 -15 55 -12 65 -29 271 -478 116 -251 125 -268 148 -265 23 3 32
26 132 318 59 173 119 338 133 367 26 51 62 87 98 98 10 4 19 11 19 16 0 9
-63 9 -198 2z"/>
<path d="M6855 1071 c-114 -15 -143 -28 -92 -42 46 -12 66 -30 82 -72 14 -37
16 -81 13 -308 -3 -303 -5 -310 -84 -331 -24 -7 -44 -16 -44 -20 0 -4 92 -8
205 -8 191 0 253 9 170 24 -19 4 -47 17 -61 29 -36 31 -43 106 -44 460 0 223
-3 287 -12 286 -7 -1 -67 -9 -133 -18z"/>
</g>
</svg>
