<?xml version="1.0" encoding="utf-8"?>
<!-- Uploaded to: SVG Repo, www.svgrepo.com, Generator: SVG Repo Mixer Tools -->
<svg fill="#000000" width="800px" height="800px" viewBox="0 0 32 32" version="1.1" xmlns="http://www.w3.org/2000/svg">
<title>kitchen-knives</title>
<path d="M16.672 5.77c0.665 0.779 0.958 1.801 0.392 3.456 4.515 1.546 8.773 3.302 13.961 2.934-3.789-3.020-8.057-5.28-13.968-7.513l0.209-0.612-8.843-3.027-0.961 2.808c3.111 0.532 6.068 1.513 8.843 3.027l0.367-1.073zM17.008 13.314l0.504-0.658-9.503-7.29-2.315 3.018c3.561 1.918 6.752 4.318 9.503 7.29l0.885-1.153c0.489 1.217 0.427 2.579-0.937 4.357 4.852 3.722 9.307 7.595 15.758 9.269-3.368-5.216-7.628-9.705-13.895-14.833zM8.722 14.24l-5.051-8.688-2.759 1.604c2.152 2.624 3.864 5.503 5.051 8.688l1.054-0.613c-0.008 1.101-0.491 2.138-2.116 3.083 2.579 4.436 4.802 8.861 9.275 12.217-0.951-5.122-2.826-9.964-6.056-15.941l0.601-0.35z"></path>
</svg>