<?xml version="1.0" encoding="utf-8"?>
<!-- Uploaded to: SVG Repo, www.svgrepo.com, Generator: SVG Repo Mixer Tools -->
<svg fill="#ffffff" width="800px" height="800px" viewBox="0 0 32 32" version="1.1" xmlns="http://www.w3.org/2000/svg">
<title>daggers</title>
<path d="M30.81 4.674l0.474-1.77c-1.238-1.239-2.989-1.662-4.669-1.251l-0.474 1.77 0.862 0.231-1.932 7.212-0.481-0.129c-0.5 0.784-1.706 1.162-3.003 0.931l-0.481 1.795c0.83 0.076 1.649 0.192 2.459 0.343-2.683 5.186-3.637 11.586-2.262 16.974 4.063-4.646 6.328-10.090 6.532-15.817 0.781 0.277 1.553 0.585 2.318 0.924l0.481-1.795c-1.239-0.448-2.094-1.379-2.136-2.308l-0.481-0.129 1.932-7.212 0.862 0.231zM25.392 15.556c-0.638-0.171-1.017-0.827-0.846-1.465 0.007-0.026 0.015-0.052 0.024-0.078 0 0 0 0 0 0 0.088-0.258 0.257-0.468 0.47-0.609 0.001-0.001 0.002-0.001 0.003-0.002 0.029-0.019 0.059-0.037 0.090-0.053 0.002-0.001 0.004-0.002 0.006-0.003 0.030-0.016 0.061-0.031 0.092-0.044 0.003-0.001 0.006-0.003 0.009-0.004 0.031-0.013 0.062-0.024 0.094-0.035 0.004-0.001 0.007-0.002 0.011-0.004 0.031-0.010 0.063-0.018 0.096-0.026 0.004-0.001 0.008-0.002 0.012-0.003 0.032-0.007 0.065-0.013 0.098-0.017 0.004-0.001 0.008-0.001 0.012-0.001 0.033-0.004 0.067-0.006 0.1-0.008 0.004-0 0.008-0 0.012-0 0.034-0.001 0.069-0 0.103 0.002 0.003 0 0.006 0.001 0.009 0.001 0.035 0.003 0.071 0.007 0.107 0.012 0.002 0 0.004 0.001 0.006 0.001 0.037 0.006 0.074 0.014 0.111 0.024s0.073 0.022 0.109 0.035c0.002 0.001 0.003 0.001 0.005 0.002 0.034 0.013 0.067 0.027 0.099 0.043 0.003 0.001 0.005 0.002 0.008 0.004 0.031 0.015 0.062 0.032 0.091 0.050 0.003 0.002 0.006 0.004 0.010 0.006 0.029 0.018 0.057 0.037 0.084 0.057 0.003 0.002 0.007 0.005 0.010 0.007 0.027 0.020 0.052 0.042 0.077 0.064 0.003 0.003 0.006 0.006 0.010 0.009 0.024 0.022 0.047 0.046 0.070 0.070 0.003 0.003 0.006 0.006 0.009 0.009 0.022 0.025 0.043 0.050 0.063 0.076 0.002 0.003 0.005 0.006 0.007 0.009 0.020 0.027 0.039 0.054 0.056 0.083 0.002 0.003 0.004 0.006 0.005 0.009 0.018 0.029 0.034 0.058 0.049 0.089 0.001 0.002 0.002 0.005 0.004 0.008 0.015 0.031 0.029 0.063 0.042 0.095 0.001 0.002 0.001 0.004 0.002 0.005 0.013 0.033 0.024 0.067 0.034 0.101 0 0.001 0 0.001 0.001 0.002 0.050 0.178 0.059 0.369 0.020 0.561-0.005 0.024-0.010 0.048-0.017 0.071-0.171 0.638-0.827 1.017-1.465 0.846zM17.985 10.554h-0.498v-7.466h0.892v-1.833c-1.517-0.877-3.317-0.832-4.834 0v1.833h0.892v7.466h-0.498c-0.28 0.887-1.347 1.564-2.66 1.676v1.858c0.821-0.142 1.643-0.242 2.464-0.305-1.25 5.703-0.514 12.133 2.208 16.981 2.722-5.539 3.501-11.384 2.216-16.969 0.826 0.065 1.652 0.163 2.478 0.292v-1.858c-1.313-0.112-2.38-0.79-2.66-1.676zM17.159 13.805c0 0.661-0.536 1.196-1.196 1.196s-1.196-0.536-1.196-1.196c0-0.027 0.001-0.055 0.003-0.082v0c0.018-0.271 0.127-0.518 0.297-0.71 0.001-0.001 0.002-0.002 0.003-0.003 0.023-0.026 0.047-0.051 0.072-0.074 0.002-0.002 0.004-0.004 0.006-0.006 0.025-0.023 0.050-0.045 0.077-0.066 0.003-0.002 0.006-0.005 0.009-0.007 0.026-0.020 0.053-0.039 0.081-0.057 0.004-0.002 0.007-0.005 0.011-0.007 0.027-0.017 0.056-0.034 0.085-0.049 0.004-0.002 0.008-0.004 0.013-0.006 0.029-0.015 0.059-0.028 0.089-0.041 0.004-0.002 0.009-0.004 0.013-0.005 0.031-0.012 0.062-0.023 0.093-0.033 0.004-0.001 0.009-0.002 0.013-0.004 0.032-0.009 0.065-0.018 0.098-0.024 0.004-0.001 0.008-0.001 0.012-0.002 0.034-0.006 0.069-0.012 0.104-0.015 0.003-0 0.006-0 0.009-0.001 0.036-0.003 0.072-0.005 0.109-0.005 0.001 0 0.002-0 0.002-0s0.002 0 0.002 0c0.037 0 0.074 0.002 0.11 0.005 0.003 0 0.005 0 0.008 0.001 0.035 0.004 0.070 0.009 0.105 0.015 0.004 0.001 0.008 0.001 0.011 0.002 0.033 0.007 0.066 0.015 0.099 0.024 0.004 0.001 0.009 0.002 0.013 0.004 0.032 0.010 0.063 0.021 0.094 0.033 0.005 0.002 0.009 0.004 0.014 0.005 0.030 0.012 0.060 0.026 0.089 0.041 0.005 0.002 0.009 0.005 0.013 0.007 0.029 0.015 0.057 0.031 0.084 0.049 0.004 0.003 0.008 0.005 0.012 0.008 0.027 0.018 0.053 0.037 0.079 0.056 0.004 0.003 0.007 0.006 0.011 0.009 0.026 0.020 0.050 0.042 0.074 0.064 0.003 0.003 0.006 0.006 0.009 0.008 0.024 0.023 0.047 0.047 0.069 0.072 0.002 0.002 0.004 0.005 0.007 0.008 0.022 0.026 0.044 0.052 0.064 0.080 0.001 0.002 0.003 0.004 0.004 0.006 0.020 0.028 0.040 0.058 0.058 0.088 0.001 0.001 0.001 0.002 0.002 0.003 0.094 0.159 0.153 0.341 0.164 0.536v0c0.001 0.024 0.002 0.048 0.002 0.073zM10.828 13.462l-0.481-1.795c-1.297 0.232-2.503-0.147-3.003-0.931l-0.481 0.129-1.932-7.212 0.862-0.231-0.474-1.77c-1.681-0.411-3.431 0.012-4.669 1.251l0.474 1.77 0.862-0.231 1.932 7.212-0.481 0.129c-0.041 0.929-0.896 1.86-2.136 2.308l0.481 1.795c0.764-0.339 1.537-0.647 2.318-0.924 0.204 5.726 2.469 11.171 6.532 15.817 1.375-5.387 0.421-11.788-2.262-16.974 0.81-0.152 1.629-0.268 2.459-0.343zM7.388 14.091c0.171 0.638-0.208 1.294-0.846 1.465s-1.294-0.208-1.465-0.846c-0.006-0.024-0.012-0.047-0.016-0.071 0 0 0 0 0 0-0.039-0.192-0.030-0.384 0.020-0.562 0-0 0-0.001 0-0.001 0.010-0.034 0.021-0.068 0.034-0.102 0.001-0.002 0.001-0.003 0.002-0.005 0.013-0.032 0.027-0.064 0.042-0.095 0.001-0.002 0.002-0.005 0.003-0.007 0.015-0.030 0.032-0.060 0.049-0.089 0.002-0.003 0.003-0.006 0.005-0.009 0.018-0.028 0.036-0.056 0.056-0.083 0.002-0.003 0.005-0.006 0.007-0.009 0.020-0.026 0.041-0.052 0.063-0.076 0.003-0.003 0.006-0.006 0.008-0.009 0.022-0.024 0.046-0.048 0.070-0.070 0.003-0.003 0.006-0.006 0.010-0.009 0.025-0.022 0.050-0.044 0.077-0.064 0.003-0.002 0.007-0.005 0.010-0.007 0.027-0.020 0.055-0.039 0.084-0.057 0.003-0.002 0.006-0.004 0.010-0.006 0.029-0.018 0.060-0.035 0.091-0.050 0.003-0.001 0.005-0.002 0.008-0.004 0.032-0.016 0.065-0.030 0.099-0.043 0.002-0.001 0.003-0.001 0.005-0.002 0.035-0.013 0.072-0.025 0.109-0.035s0.074-0.018 0.111-0.024c0.002-0 0.004-0.001 0.006-0.001 0.036-0.006 0.071-0.010 0.107-0.012 0.003-0 0.006-0.001 0.009-0.001 0.035-0.002 0.069-0.003 0.103-0.002 0.004 0 0.008 0 0.012 0 0.034 0.001 0.067 0.004 0.1 0.008 0.004 0 0.008 0.001 0.012 0.001 0.033 0.004 0.066 0.010 0.098 0.017 0.004 0.001 0.008 0.002 0.012 0.003 0.032 0.007 0.064 0.016 0.096 0.026 0.004 0.001 0.007 0.002 0.011 0.004 0.032 0.010 0.063 0.022 0.094 0.035 0.003 0.001 0.006 0.003 0.009 0.004 0.031 0.013 0.062 0.028 0.092 0.044 0.002 0.001 0.004 0.002 0.006 0.003 0.031 0.017 0.061 0.034 0.090 0.054 0.001 0.001 0.002 0.001 0.003 0.002 0.213 0.142 0.383 0.352 0.471 0.609 0 0 0 0 0 0 0.009 0.026 0.017 0.051 0.024 0.078z"></path>
</svg>